<?xml version="1.0" encoding="UTF-8"?>
<!-- Generated by jsxcad -->
<!DOCTYPE svg PUBLIC "-//W3C//DTD SVG 1.1 Tiny//EN" "http://www.w3.org/Graphics/SVG/1.1/DTD/svg11-tiny.dtd">
<svg baseProfile="tiny" height="211.15269mm" width="212.02381mm" viewBox="-0.00000 28.53675 212.02381 211.15269" version="1.1" stroke="black" stroke-width=".1" fill="none" xmlns="http://www.w3.org/2000/svg">
<path fill="#000000" stroke="#000000" d="M83.13880 144.16928 L84.61968 140.99995 L87.47592 139.00194 L90.96088 138.69753 L94.13021 140.17841 L96.12822 143.03465 L96.43263 146.51961 L94.95174 149.68894 L92.09551 151.68695 L88.61055 151.99136 L85.44122 150.51047 L83.44321 147.65424 z M95.53270 145.53057 L94.72271 142.39680 L92.34602 140.19592 L89.14594 139.63015 L86.15870 140.88269 L84.32330 143.54876 L84.21895 146.78445 L85.87854 149.56303 L88.78465 151.00663 L92.00957 150.64699 L94.52127 148.60589 z"/>
<path fill="#000000" stroke="#000000" d="M94.52127 148.60589 L92.00957 150.64699 L88.78465 151.00663 L85.87854 149.56303 L84.21895 146.78445 L84.32330 143.54876 L86.15870 140.88269 L89.14594 139.63015 L92.34602 140.19592 L94.72271 142.39680 L95.53270 145.53057 z"/>
<path fill="#000000" stroke="#000000" d="M98.84613 160.15182 L87.52176 158.14968 L87.78358 156.66882 L92.25883 156.57537 L96.38429 154.76298 L99.43994 151.56856 L100.33565 151.72693 z"/>
<path fill="#000000" stroke="#000000" d="M108.63880 144.16928 L110.11968 140.99995 L112.97592 139.00194 L116.46088 138.69753 L119.63021 140.17841 L121.62822 143.03465 L121.93263 146.51961 L120.45174 149.68894 L117.59551 151.68695 L114.11055 151.99136 L110.94122 150.51047 L108.94321 147.65424 z M121.03270 145.53057 L120.22271 142.39680 L117.84602 140.19592 L114.64594 139.63015 L111.65870 140.88269 L109.82330 143.54876 L109.71895 146.78445 L111.37854 149.56303 L114.28465 151.00663 L117.50957 150.64699 L120.02127 148.60589 z"/>
<path fill="#000000" stroke="#000000" d="M120.02127 148.60589 L117.50957 150.64699 L114.28465 151.00663 L111.37854 149.56303 L109.71895 146.78445 L109.82330 143.54876 L111.65870 140.88269 L114.64594 139.63015 L117.84602 140.19592 L120.22271 142.39680 L121.03270 145.53057 z"/>
<path fill="#000000" stroke="#000000" d="M124.34613 160.15182 L113.02176 158.14968 L113.28358 156.66882 L117.75883 156.57537 L121.88429 154.76298 L124.93994 151.56856 L125.83565 151.72693 z"/>
<path fill="#000000" stroke="#000000" d="M134.13880 144.16928 L135.61968 140.99995 L138.47592 139.00194 L141.96088 138.69753 L145.13021 140.17841 L147.12822 143.03465 L147.43263 146.51961 L145.95174 149.68894 L143.09551 151.68695 L139.61055 151.99136 L136.44122 150.51047 L134.44321 147.65424 z M146.53270 145.53057 L145.72271 142.39680 L143.34602 140.19592 L140.14594 139.63015 L137.15870 140.88269 L135.32330 143.54876 L135.21895 146.78445 L136.87854 149.56303 L139.78465 151.00663 L143.00957 150.64699 L145.52127 148.60589 z"/>
<path fill="#000000" stroke="#000000" d="M145.52127 148.60589 L143.00957 150.64699 L139.78465 151.00663 L136.87854 149.56303 L135.21895 146.78445 L135.32330 143.54876 L137.15870 140.88269 L140.14594 139.63015 L143.34602 140.19592 L145.72271 142.39680 L146.53270 145.53057 z"/>
<path fill="#000000" stroke="#000000" d="M149.84613 160.15182 L138.52176 158.14968 L138.78358 156.66882 L143.25883 156.57537 L147.38429 154.76298 L150.43994 151.56856 L151.33565 151.72693 z"/>
<path fill="#000000" stroke="#000000" d="M159.63880 144.16928 L161.11968 140.99995 L163.97592 139.00194 L167.46088 138.69753 L170.63021 140.17841 L172.62822 143.03465 L172.93263 146.51961 L171.45174 149.68894 L168.59551 151.68695 L165.11055 151.99136 L161.94122 150.51047 L159.94321 147.65424 z M172.03270 145.53057 L171.22271 142.39680 L168.84602 140.19592 L165.64594 139.63015 L162.65870 140.88269 L160.82330 143.54876 L160.71895 146.78445 L162.37854 149.56303 L165.28465 151.00663 L168.50957 150.64699 L171.02127 148.60589 z"/>
<path fill="#000000" stroke="#000000" d="M171.02127 148.60589 L168.50957 150.64699 L165.28465 151.00663 L162.37854 149.56303 L160.71895 146.78445 L160.82330 143.54876 L162.65870 140.88269 L165.64594 139.63015 L168.84602 140.19592 L171.22271 142.39680 L172.03270 145.53057 z"/>
<path fill="#000000" stroke="#000000" d="M175.34613 160.15182 L164.02176 158.14968 L164.28358 156.66882 L168.75883 156.57537 L172.88429 154.76298 L175.93994 151.56856 L176.83565 151.72693 z"/>
<path fill="#000000" stroke="#000000" d="M83.13880 118.66928 L84.61968 115.49995 L87.47592 113.50194 L90.96088 113.19753 L94.13021 114.67841 L96.12822 117.53465 L96.43263 121.01961 L94.95174 124.18894 L92.09551 126.18695 L88.61055 126.49136 L85.44122 125.01047 L83.44321 122.15424 z M95.53270 120.03057 L94.72271 116.89680 L92.34602 114.69592 L89.14594 114.13015 L86.15870 115.38269 L84.32330 118.04876 L84.21895 121.28445 L85.87854 124.06303 L88.78465 125.50663 L92.00957 125.14699 L94.52127 123.10589 z"/>
<path fill="#000000" stroke="#000000" d="M94.52127 123.10589 L92.00957 125.14699 L88.78465 125.50663 L85.87854 124.06303 L84.21895 121.28445 L84.32330 118.04876 L86.15870 115.38269 L89.14594 114.13015 L92.34602 114.69592 L94.72271 116.89680 L95.53270 120.03057 z"/>
<path fill="#000000" stroke="#000000" d="M98.84613 134.65182 L87.52176 132.64968 L87.78358 131.16882 L92.25883 131.07537 L96.38429 129.26298 L99.43994 126.06856 L100.33565 126.22693 z"/>
<path fill="#000000" stroke="#000000" d="M108.63880 118.66928 L110.11968 115.49995 L112.97592 113.50194 L116.46088 113.19753 L119.63021 114.67841 L121.62822 117.53465 L121.93263 121.01961 L120.45174 124.18894 L117.59551 126.18695 L114.11055 126.49136 L110.94122 125.01047 L108.94321 122.15424 z M121.03270 120.03057 L120.22271 116.89680 L117.84602 114.69592 L114.64594 114.13015 L111.65870 115.38269 L109.82330 118.04876 L109.71895 121.28445 L111.37854 124.06303 L114.28465 125.50663 L117.50957 125.14699 L120.02127 123.10589 z"/>
<path fill="#000000" stroke="#000000" d="M120.02127 123.10589 L117.50957 125.14699 L114.28465 125.50663 L111.37854 124.06303 L109.71895 121.28445 L109.82330 118.04876 L111.65870 115.38269 L114.64594 114.13015 L117.84602 114.69592 L120.22271 116.89680 L121.03270 120.03057 z"/>
<path fill="#000000" stroke="#000000" d="M124.34613 134.65182 L113.02176 132.64968 L113.28358 131.16882 L117.75883 131.07537 L121.88429 129.26298 L124.93994 126.06856 L125.83565 126.22693 z"/>
<path fill="#000000" stroke="#000000" d="M134.13880 118.66928 L135.61968 115.49995 L138.47592 113.50194 L141.96088 113.19753 L145.13021 114.67841 L147.12822 117.53465 L147.43263 121.01961 L145.95174 124.18894 L143.09551 126.18695 L139.61055 126.49136 L136.44122 125.01047 L134.44321 122.15424 z M146.53270 120.03057 L145.72271 116.89680 L143.34602 114.69592 L140.14594 114.13015 L137.15870 115.38269 L135.32330 118.04876 L135.21895 121.28445 L136.87854 124.06303 L139.78465 125.50663 L143.00957 125.14699 L145.52127 123.10589 z"/>
<path fill="#000000" stroke="#000000" d="M145.52127 123.10589 L143.00957 125.14699 L139.78465 125.50663 L136.87854 124.06303 L135.21895 121.28445 L135.32330 118.04876 L137.15870 115.38269 L140.14594 114.13015 L143.34602 114.69592 L145.72271 116.89680 L146.53270 120.03057 z"/>
<path fill="#000000" stroke="#000000" d="M149.84613 134.65182 L138.52176 132.64968 L138.78358 131.16882 L143.25883 131.07537 L147.38429 129.26298 L150.43994 126.06856 L151.33565 126.22693 z"/>
<path fill="#000000" stroke="#000000" d="M159.63880 118.66928 L161.11968 115.49995 L163.97592 113.50194 L167.46088 113.19753 L170.63021 114.67841 L172.62822 117.53465 L172.93263 121.01961 L171.45174 124.18894 L168.59551 126.18695 L165.11055 126.49136 L161.94122 125.01047 L159.94321 122.15424 z M172.03270 120.03057 L171.22271 116.89680 L168.84602 114.69592 L165.64594 114.13015 L162.65870 115.38269 L160.82330 118.04876 L160.71895 121.28445 L162.37854 124.06303 L165.28465 125.50663 L168.50957 125.14699 L171.02127 123.10589 z"/>
<path fill="#000000" stroke="#000000" d="M171.02127 123.10589 L168.50957 125.14699 L165.28465 125.50663 L162.37854 124.06303 L160.71895 121.28445 L160.82330 118.04876 L162.65870 115.38269 L165.64594 114.13015 L168.84602 114.69592 L171.22271 116.89680 L172.03270 120.03057 z"/>
<path fill="#000000" stroke="#000000" d="M175.34613 134.65182 L164.02176 132.64968 L164.28358 131.16882 L168.75883 131.07537 L172.88429 129.26298 L175.93994 126.06856 L176.83565 126.22693 z"/>
<path fill="#000000" stroke="#000000" d="M83.13880 169.66928 L84.61968 166.49995 L87.47592 164.50194 L90.96088 164.19753 L94.13021 165.67841 L96.12822 168.53465 L96.43263 172.01961 L94.95174 175.18894 L92.09551 177.18695 L88.61055 177.49136 L85.44122 176.01047 L83.44321 173.15424 z M95.53270 171.03057 L94.72271 167.89680 L92.34602 165.69592 L89.14594 165.13015 L86.15870 166.38269 L84.32330 169.04876 L84.21895 172.28445 L85.87854 175.06303 L88.78465 176.50663 L92.00957 176.14699 L94.52127 174.10589 z"/>
<path fill="#000000" stroke="#000000" d="M94.52127 174.10589 L92.00957 176.14699 L88.78465 176.50663 L85.87854 175.06303 L84.21895 172.28445 L84.32330 169.04876 L86.15870 166.38269 L89.14594 165.13015 L92.34602 165.69592 L94.72271 167.89680 L95.53270 171.03057 z"/>
<path fill="#000000" stroke="#000000" d="M98.84613 185.65182 L87.52176 183.64968 L87.78358 182.16882 L92.25883 182.07537 L96.38429 180.26298 L99.43994 177.06856 L100.33565 177.22693 z"/>
<path fill="#000000" stroke="#000000" d="M108.63880 169.66928 L110.11968 166.49995 L112.97592 164.50194 L116.46088 164.19753 L119.63021 165.67841 L121.62822 168.53465 L121.93263 172.01961 L120.45174 175.18894 L117.59551 177.18695 L114.11055 177.49136 L110.94122 176.01047 L108.94321 173.15424 z M121.03270 171.03057 L120.22271 167.89680 L117.84602 165.69592 L114.64594 165.13015 L111.65870 166.38269 L109.82330 169.04876 L109.71895 172.28445 L111.37854 175.06303 L114.28465 176.50663 L117.50957 176.14699 L120.02127 174.10589 z"/>
<path fill="#000000" stroke="#000000" d="M120.02127 174.10589 L117.50957 176.14699 L114.28465 176.50663 L111.37854 175.06303 L109.71895 172.28445 L109.82330 169.04876 L111.65870 166.38269 L114.64594 165.13015 L117.84602 165.69592 L120.22271 167.89680 L121.03270 171.03057 z"/>
<path fill="#000000" stroke="#000000" d="M124.34613 185.65182 L113.02176 183.64968 L113.28358 182.16882 L117.75883 182.07537 L121.88429 180.26298 L124.93994 177.06856 L125.83565 177.22693 z"/>
<path fill="#000000" stroke="#000000" d="M134.13880 169.66928 L135.61968 166.49995 L138.47592 164.50194 L141.96088 164.19753 L145.13021 165.67841 L147.12822 168.53465 L147.43263 172.01961 L145.95174 175.18894 L143.09551 177.18695 L139.61055 177.49136 L136.44122 176.01047 L134.44321 173.15424 z M146.53270 171.03057 L145.72271 167.89680 L143.34602 165.69592 L140.14594 165.13015 L137.15870 166.38269 L135.32330 169.04876 L135.21895 172.28445 L136.87854 175.06303 L139.78465 176.50663 L143.00957 176.14699 L145.52127 174.10589 z"/>
<path fill="#000000" stroke="#000000" d="M145.52127 174.10589 L143.00957 176.14699 L139.78465 176.50663 L136.87854 175.06303 L135.21895 172.28445 L135.32330 169.04876 L137.15870 166.38269 L140.14594 165.13015 L143.34602 165.69592 L145.72271 167.89680 L146.53270 171.03057 z"/>
<path fill="#000000" stroke="#000000" d="M149.84613 185.65182 L138.52176 183.64968 L138.78358 182.16882 L143.25883 182.07537 L147.38429 180.26298 L150.43994 177.06856 L151.33565 177.22693 z"/>
<path fill="#000000" stroke="#000000" d="M159.63880 169.66928 L161.11968 166.49995 L163.97592 164.50194 L167.46088 164.19753 L170.63021 165.67841 L172.62822 168.53465 L172.93263 172.01961 L171.45174 175.18894 L168.59551 177.18695 L165.11055 177.49136 L161.94122 176.01047 L159.94321 173.15424 z M172.03270 171.03057 L171.22271 167.89680 L168.84602 165.69592 L165.64594 165.13015 L162.65870 166.38269 L160.82330 169.04876 L160.71895 172.28445 L162.37854 175.06303 L165.28465 176.50663 L168.50957 176.14699 L171.02127 174.10589 z"/>
<path fill="#000000" stroke="#000000" d="M171.02127 174.10589 L168.50957 176.14699 L165.28465 176.50663 L162.37854 175.06303 L160.71895 172.28445 L160.82330 169.04876 L162.65870 166.38269 L165.64594 165.13015 L168.84602 165.69592 L171.22271 167.89680 L172.03270 171.03057 z"/>
<path fill="#000000" stroke="#000000" d="M175.34613 185.65182 L164.02176 183.64968 L164.28358 182.16882 L168.75883 182.07537 L172.88429 180.26298 L175.93994 177.06856 L176.83565 177.22693 z"/>
<path fill="#000000" stroke="#000000" d="M83.13880 195.16928 L84.61968 191.99995 L87.47592 190.00194 L90.96088 189.69753 L94.13021 191.17841 L96.12822 194.03465 L96.43263 197.51961 L94.95174 200.68894 L92.09551 202.68695 L88.61055 202.99136 L85.44122 201.51047 L83.44321 198.65424 z M95.53270 196.53057 L94.72271 193.39680 L92.34602 191.19592 L89.14594 190.63015 L86.15870 191.88269 L84.32330 194.54876 L84.21895 197.78445 L85.87854 200.56303 L88.78465 202.00663 L92.00957 201.64699 L94.52127 199.60589 z"/>
<path fill="#000000" stroke="#000000" d="M94.52127 199.60589 L92.00957 201.64699 L88.78465 202.00663 L85.87854 200.56303 L84.21895 197.78445 L84.32330 194.54876 L86.15870 191.88269 L89.14594 190.63015 L92.34602 191.19592 L94.72271 193.39680 L95.53270 196.53057 z"/>
<path fill="#000000" stroke="#000000" d="M98.84613 211.15182 L87.52176 209.14968 L87.78358 207.66882 L92.25883 207.57537 L96.38429 205.76298 L99.43994 202.56856 L100.33565 202.72693 z"/>
<path fill="#000000" stroke="#000000" d="M108.63880 195.16928 L110.11968 191.99995 L112.97592 190.00194 L116.46088 189.69753 L119.63021 191.17841 L121.62822 194.03465 L121.93263 197.51961 L120.45174 200.68894 L117.59551 202.68695 L114.11055 202.99136 L110.94122 201.51047 L108.94321 198.65424 z M121.03270 196.53057 L120.22271 193.39680 L117.84602 191.19592 L114.64594 190.63015 L111.65870 191.88269 L109.82330 194.54876 L109.71895 197.78445 L111.37854 200.56303 L114.28465 202.00663 L117.50957 201.64699 L120.02127 199.60589 z"/>
<path fill="#000000" stroke="#000000" d="M120.02127 199.60589 L117.50957 201.64699 L114.28465 202.00663 L111.37854 200.56303 L109.71895 197.78445 L109.82330 194.54876 L111.65870 191.88269 L114.64594 190.63015 L117.84602 191.19592 L120.22271 193.39680 L121.03270 196.53057 z"/>
<path fill="#000000" stroke="#000000" d="M124.34613 211.15182 L113.02176 209.14968 L113.28358 207.66882 L117.75883 207.57537 L121.88429 205.76298 L124.93994 202.56856 L125.83565 202.72693 z"/>
<path fill="#000000" stroke="#000000" d="M134.13880 195.16928 L135.61968 191.99995 L138.47592 190.00194 L141.96088 189.69753 L145.13021 191.17841 L147.12822 194.03465 L147.43263 197.51961 L145.95174 200.68894 L143.09551 202.68695 L139.61055 202.99136 L136.44122 201.51047 L134.44321 198.65424 z M146.53270 196.53057 L145.72271 193.39680 L143.34602 191.19592 L140.14594 190.63015 L137.15870 191.88269 L135.32330 194.54876 L135.21895 197.78445 L136.87854 200.56303 L139.78465 202.00663 L143.00957 201.64699 L145.52127 199.60589 z"/>
<path fill="#000000" stroke="#000000" d="M145.52127 199.60589 L143.00957 201.64699 L139.78465 202.00663 L136.87854 200.56303 L135.21895 197.78445 L135.32330 194.54876 L137.15870 191.88269 L140.14594 190.63015 L143.34602 191.19592 L145.72271 193.39680 L146.53270 196.53057 z"/>
<path fill="#000000" stroke="#000000" d="M149.84613 211.15182 L138.52176 209.14968 L138.78358 207.66882 L143.25883 207.57537 L147.38429 205.76298 L150.43994 202.56856 L151.33565 202.72693 z"/>
<path fill="#000000" stroke="#000000" d="M159.63880 195.16928 L161.11968 191.99995 L163.97592 190.00194 L167.46088 189.69753 L170.63021 191.17841 L172.62822 194.03465 L172.93263 197.51961 L171.45174 200.68894 L168.59551 202.68695 L165.11055 202.99136 L161.94122 201.51047 L159.94321 198.65424 z M172.03270 196.53057 L171.22271 193.39680 L168.84602 191.19592 L165.64594 190.63015 L162.65870 191.88269 L160.82330 194.54876 L160.71895 197.78445 L162.37854 200.56303 L165.28465 202.00663 L168.50957 201.64699 L171.02127 199.60589 z"/>
<path fill="#000000" stroke="#000000" d="M171.02127 199.60589 L168.50957 201.64699 L165.28465 202.00663 L162.37854 200.56303 L160.71895 197.78445 L160.82330 194.54876 L162.65870 191.88269 L165.64594 190.63015 L168.84602 191.19592 L171.22271 193.39680 L172.03270 196.53057 z"/>
<path fill="#000000" stroke="#000000" d="M175.34613 211.15182 L164.02176 209.14968 L164.28358 207.66882 L168.75883 207.57537 L172.88429 205.76298 L175.93994 202.56856 L176.83565 202.72693 z"/>
<path stroke="#000000" d="M 0.00000 28.53675 L 179.50000 28.53675 L 179.50000 211.03675 L 0.00000 211.03675 z"/>
<path stroke="#000000" d="M 4.89286 236.42754 L 6.52381 237.24302 L 8.97024 239.68944 L 8.97024 222.56444"/>
<path stroke="#000000" d="M 30.17262 239.68944 L 22.01786 222.56444 M 18.75595 239.68944 z"/>
<path stroke="#000000" d="M 45.66667 233.98111 L 44.85119 231.53468 L 43.22024 229.90373 L 40.77381 229.08825 L 39.95833 229.08825 L 37.51190 229.90373 L 35.88095 231.53468 L 35.06548 233.98111 L 35.06548 234.79659 L 35.88095 237.24302 L 37.51190 238.87397 L 39.95833 239.68944 L 40.77381 239.68944 L 43.22024 238.87397 L 44.85119 237.24302 L 45.66667 233.98111 L 45.66667 229.90373 L 44.85119 225.82635 L 43.22024 223.37992 L 40.77381 222.56444 L 39.14286 222.56444 L 36.69643 223.37992 L 35.88095 225.01087"/>
<path stroke="#000000" d="M 53.00595 224.19540 L 52.19048 223.37992 L 53.00595 222.56444 L 53.82143 223.37992 z"/>
<path stroke="#000000" d="M 69.31548 239.68944 L 61.16071 239.68944 L 60.34524 232.35016 L 61.16071 233.16563 L 63.60714 233.98111 L 66.05357 233.98111 L 68.50000 233.16563 L 70.13095 231.53468 L 70.94643 229.08825 L 70.94643 227.45730 L 70.13095 225.01087 L 68.50000 223.37992 L 66.05357 222.56444 L 63.60714 222.56444 L 61.16071 223.37992 L 60.34524 224.19540 L 59.52976 225.82635"/>
<path stroke="#000000" d="M 87.25595 239.68944 L 79.10119 222.56444 M 75.83929 239.68944 z"/>
<path stroke="#000000" d=""/>
<path stroke="#000000" d="M 105.19643 233.98111 L 114.16667 222.56444 M 114.16667 233.98111 L 105.19643 222.56444"/>
<path stroke="#000000" d=""/>
<path stroke="#000000" d="M 134.55357 236.42754 L 136.18452 237.24302 L 138.63095 239.68944 L 138.63095 222.56444"/>
<path stroke="#000000" d="M 152.49405 239.68944 L 150.04762 238.87397 L 149.23214 237.24302 L 149.23214 235.61206 L 150.04762 233.98111 L 151.67857 233.16563 L 154.94048 232.35016 L 157.38690 231.53468 L 159.01786 229.90373 L 159.83333 228.27278 L 159.83333 225.82635 L 159.01786 224.19540 L 158.20238 223.37992 L 155.75595 222.56444 L 152.49405 222.56444 L 150.04762 223.37992 L 149.23214 224.19540 L 148.41667 225.82635 L 148.41667 228.27278 L 149.23214 229.90373 L 150.86310 231.53468 L 153.30952 232.35016 L 156.57143 233.16563 L 158.20238 233.98111 L 159.01786 235.61206 L 159.01786 237.24302 L 158.20238 238.87397 L 155.75595 239.68944 z"/>
<path stroke="#000000" d="M 165.54167 235.61206 L 165.54167 236.42754 L 166.35714 238.05849 L 167.17262 238.87397 L 168.80357 239.68944 L 172.06548 239.68944 L 173.69643 238.87397 L 174.51190 238.05849 L 175.32738 236.42754 L 175.32738 234.79659 L 174.51190 233.16563 L 172.88095 230.71921 L 164.72619 222.56444 L 176.14286 222.56444"/>
<path stroke="#000000" d="M 182.66667 224.19540 L 181.85119 223.37992 L 182.66667 222.56444 L 183.48214 223.37992 z"/>
<path stroke="#000000" d="M 199.79167 237.24302 L 198.97619 238.87397 L 196.52976 239.68944 L 194.89881 239.68944 L 192.45238 238.87397 L 190.82143 236.42754 L 190.00595 232.35016 L 190.00595 228.27278 L 190.82143 225.01087 L 192.45238 223.37992 L 194.89881 222.56444 L 195.71429 222.56444 L 198.16071 223.37992 L 199.79167 225.01087 L 200.60714 227.45730 L 200.60714 228.27278 L 199.79167 230.71921 L 198.16071 232.35016 L 195.71429 233.16563 L 194.89881 233.16563 L 192.45238 232.35016 L 190.82143 230.71921 L 190.00595 228.27278"/>
<path stroke="#000000" d="M 207.94643 236.42754 L 209.57738 237.24302 L 212.02381 239.68944 L 212.02381 222.56444"/>
</svg>