<?xml version="1.0" encoding="UTF-8"?>
<!-- Generated by jsxcad -->
<!DOCTYPE svg PUBLIC "-//W3C//DTD SVG 1.1 Tiny//EN" "http://www.w3.org/Graphics/SVG/1.1/DTD/svg11-tiny.dtd">
<svg baseProfile="tiny" height="126.30985mm" width="195.42857mm" viewBox="-0.00000 21.95186 195.42857 126.30985" version="1.1" stroke="black" stroke-width=".1" fill="none" xmlns="http://www.w3.org/2000/svg">
<path fill="#000000" stroke="#000000" d="M52.26698 59.41977 L53.43499 56.85900 L55.80330 55.33422 L108.62913 55.33422 L110.99745 56.85900 L112.16545 59.41977 L112.16545 87.41977 L111.76495 90.20625 L109.92322 92.33426 L107.21622 93.13043 L57.21622 93.13043 L54.50921 92.33426 L52.66748 90.20625 L52.26698 87.41977 z"/>
<path stroke="#000000" d="M 0.00000 21.95186 L 164.50000 21.95186 L 164.50000 126.28520 L 0.00000 126.28520 z"/>
<path stroke="#000000" d="M 4.40816 145.32293 L 5.87755 146.05763 L 8.08163 148.26171 L 8.08163 132.83314"/>
<path stroke="#000000" d="M 26.44898 146.05763 L 25.71429 147.52702 L 23.51020 148.26171 L 22.04082 148.26171 L 19.83673 147.52702 L 18.36735 145.32293 L 17.63265 141.64946 L 17.63265 137.97599 L 18.36735 135.03722 L 19.83673 133.56783 L 22.04082 132.83314 L 22.77551 132.83314 L 24.97959 133.56783 L 26.44898 135.03722 L 27.18367 137.24130 L 27.18367 137.97599 L 26.44898 140.18008 L 24.97959 141.64946 L 22.77551 142.38416 L 22.04082 142.38416 L 19.83673 141.64946 L 18.36735 140.18008 L 17.63265 137.97599"/>
<path stroke="#000000" d="M 38.93878 148.26171 L 31.59184 137.97599 L 42.61224 137.97599 M 38.93878 148.26171 L 38.93878 132.83314"/>
<path stroke="#000000" d="M 47.75510 134.30253 L 47.02041 133.56783 L 47.75510 132.83314 L 48.48980 133.56783 z"/>
<path stroke="#000000" d="M 60.97959 148.26171 L 53.63265 137.97599 L 64.65306 137.97599 M 60.97959 148.26171 L 60.97959 132.83314"/>
<path stroke="#000000" d="M 69.79592 148.26171 L 77.87755 148.26171 L 73.46939 142.38416 L 75.67347 142.38416 L 77.14286 141.64946 L 77.87755 140.91477 L 78.61224 138.71069 L 78.61224 137.24130 L 77.87755 135.03722 L 76.40816 133.56783 L 74.20408 132.83314 L 72.00000 132.83314 L 69.79592 133.56783 L 69.06122 134.30253 L 68.32653 135.77191"/>
<path stroke="#000000" d=""/>
<path stroke="#000000" d="M 94.77551 143.11885 L 102.85714 132.83314 M 102.85714 143.11885 L 94.77551 132.83314"/>
<path stroke="#000000" d=""/>
<path stroke="#000000" d="M 121.22449 145.32293 L 122.69388 146.05763 L 124.89796 148.26171 L 124.89796 132.83314"/>
<path stroke="#000000" d="M 138.12245 148.26171 L 135.91837 147.52702 L 134.44898 145.32293 L 133.71429 141.64946 L 133.71429 139.44538 L 134.44898 135.77191 L 135.91837 133.56783 L 138.12245 132.83314 L 139.59184 132.83314 L 141.79592 133.56783 L 143.26531 135.77191 L 144.00000 139.44538 L 144.00000 141.64946 L 143.26531 145.32293 L 141.79592 147.52702 L 139.59184 148.26171 z"/>
<path stroke="#000000" d="M 155.75510 148.26171 L 148.40816 137.97599 L 159.42857 137.97599 M 155.75510 148.26171 L 155.75510 132.83314"/>
<path stroke="#000000" d="M 164.57143 134.30253 L 163.83673 133.56783 L 164.57143 132.83314 L 165.30612 133.56783 z"/>
<path stroke="#000000" d="M 171.91837 148.26171 L 180.00000 148.26171 L 175.59184 142.38416 L 177.79592 142.38416 L 179.26531 141.64946 L 180.00000 140.91477 L 180.73469 138.71069 L 180.73469 137.24130 L 180.00000 135.03722 L 178.53061 133.56783 L 176.32653 132.83314 L 174.12245 132.83314 L 171.91837 133.56783 L 171.18367 134.30253 L 170.44898 135.77191"/>
<path stroke="#000000" d="M 193.95918 148.26171 L 186.61224 148.26171 L 185.87755 141.64946 L 186.61224 142.38416 L 188.81633 143.11885 L 191.02041 143.11885 L 193.22449 142.38416 L 194.69388 140.91477 L 195.42857 138.71069 L 195.42857 137.24130 L 194.69388 135.03722 L 193.22449 133.56783 L 191.02041 132.83314 L 188.81633 132.83314 L 186.61224 133.56783 L 185.87755 134.30253 L 185.14286 135.77191"/>
</svg>