<?xml version="1.0" encoding="UTF-8"?>
<!-- Generated by jsxcad -->
<!DOCTYPE svg PUBLIC "-//W3C//DTD SVG 1.1 Tiny//EN" "http://www.w3.org/Graphics/SVG/1.1/DTD/svg11-tiny.dtd">
<svg baseProfile="tiny" height="194.47500mm" width="374.50013mm" viewBox="-0.00013 44.47500 374.50013 194.47500" version="1.1" stroke="black" stroke-width=".1" fill="none" xmlns="http://www.w3.org/2000/svg">
<path fill="#000000" stroke="#000000" d="M-0.00013 115.53854 L1.29358 109.44446 L1.61701 107.92095 L4.18640 102.14754 L4.82875 100.70419 L8.53186 95.61775 L9.45763 94.34613 L14.11827 90.15974 L15.28343 89.11314 L20.71157 85.98611 L22.06861 85.20435 L28.00129 83.27840 L29.48446 82.79692 L186.78138 52.81061 L226.10561 45.31403 L235.05527 44.64281 L237.29268 44.47500 L246.24234 45.14622 L248.47976 45.31403 L257.23981 47.31597 L259.42982 47.81645 L267.78683 51.10140 L269.87608 51.92263 L277.66573 56.42922 L279.61314 57.55587 L286.59655 63.13537 L288.34241 64.53025 L294.40686 71.06957 L295.92297 72.70440 L300.96103 80.08758 L302.22054 81.93338 L306.13157 90.04848 L307.10933 92.07726 L309.74561 100.61759 L310.40468 102.75268 L311.75070 111.69218 L312.08720 113.92705 L312.08720 122.80377 L312.08720 125.02295 L310.74118 133.96245 L310.40468 136.19732 L307.76840 144.73766 L307.10933 146.87274 L303.19830 154.98784 L302.22054 157.01662 L297.18249 164.39981 L295.92297 166.24560 L289.85852 172.78492 L288.34241 174.41975 L281.35899 179.99926 L279.61314 181.39413 L271.82349 185.90072 L269.87608 187.02737 L261.51907 190.31231 L259.42982 191.13355 L250.66977 193.13548 L248.47976 193.63597 L239.53010 194.30719 L237.29268 194.47500 L228.34302 193.80378 L226.10561 193.63597 L68.80869 163.64966 L29.48446 156.15308 L23.55178 154.22714 L22.06861 153.74565 L16.64046 150.61862 L15.28343 149.83686 L10.62279 145.65047 L9.45763 144.60387 L5.75453 139.51742 L4.82875 138.24581 L2.25936 132.47241 L1.61701 131.02905 L0.32329 124.93498 L-0.00013 123.41146 L-0.00013 117.11312 z"/>
<path stroke="#000000" d="M 0.00000 44.47500 L 374.50000 44.47500 L 374.50000 194.47500 L 0.00000 194.47500 z"/>
<path stroke="#000000" d="M 8.35714 238.95000 L 26.74286 238.95000 L 16.71429 225.57857 L 21.72857 225.57857 L 25.07143 223.90714 L 26.74286 222.23571 L 28.41429 217.22143 L 28.41429 213.87857 L 26.74286 208.86429 L 23.40000 205.52143 L 18.38571 203.85000 L 13.37143 203.85000 L 8.35714 205.52143 L 6.68571 207.19286 L 5.01429 210.53571"/>
<path stroke="#000000" d="M 61.84286 238.95000 L 45.12857 203.85000 M 38.44286 238.95000 z"/>
<path stroke="#000000" d="M 88.58571 238.95000 L 71.87143 215.55000 L 96.94286 215.55000 M 88.58571 238.95000 L 88.58571 203.85000"/>
<path stroke="#000000" d="M 108.64286 207.19286 L 106.97143 205.52143 L 108.64286 203.85000 L 110.31429 205.52143 z"/>
<path stroke="#000000" d="M 142.07143 238.95000 L 125.35714 238.95000 L 123.68571 223.90714 L 125.35714 225.57857 L 130.37143 227.25000 L 135.38571 227.25000 L 140.40000 225.57857 L 143.74286 222.23571 L 145.41429 217.22143 L 145.41429 213.87857 L 143.74286 208.86429 L 140.40000 205.52143 L 135.38571 203.85000 L 130.37143 203.85000 L 125.35714 205.52143 L 123.68571 207.19286 L 122.01429 210.53571"/>
<path stroke="#000000" d="M 163.80000 238.95000 L 158.78571 237.27857 L 157.11429 233.93571 L 157.11429 230.59286 L 158.78571 227.25000 L 162.12857 225.57857 L 168.81429 223.90714 L 173.82857 222.23571 L 177.17143 218.89286 L 178.84286 215.55000 L 178.84286 210.53571 L 177.17143 207.19286 L 175.50000 205.52143 L 170.48571 203.85000 L 163.80000 203.85000 L 158.78571 205.52143 L 157.11429 207.19286 L 155.44286 210.53571 L 155.44286 215.55000 L 157.11429 218.89286 L 160.45714 222.23571 L 165.47143 223.90714 L 172.15714 225.57857 L 175.50000 227.25000 L 177.17143 230.59286 L 177.17143 233.93571 L 175.50000 237.27857 L 170.48571 238.95000 z"/>
<path stroke="#000000" d=""/>
<path stroke="#000000" d="M 215.61429 227.25000 L 234.00000 203.85000 M 234.00000 227.25000 L 215.61429 203.85000"/>
<path stroke="#000000" d=""/>
<path stroke="#000000" d="M 275.78571 232.26429 L 279.12857 233.93571 L 284.14286 238.95000 L 284.14286 203.85000"/>
<path stroke="#000000" d="M 324.25714 238.95000 L 307.54286 238.95000 L 305.87143 223.90714 L 307.54286 225.57857 L 312.55714 227.25000 L 317.57143 227.25000 L 322.58571 225.57857 L 325.92857 222.23571 L 327.60000 217.22143 L 327.60000 213.87857 L 325.92857 208.86429 L 322.58571 205.52143 L 317.57143 203.85000 L 312.55714 203.85000 L 307.54286 205.52143 L 305.87143 207.19286 L 304.20000 210.53571"/>
<path stroke="#000000" d="M 347.65714 238.95000 L 342.64286 237.27857 L 339.30000 232.26429 L 337.62857 223.90714 L 337.62857 218.89286 L 339.30000 210.53571 L 342.64286 205.52143 L 347.65714 203.85000 L 351.00000 203.85000 L 356.01429 205.52143 L 359.35714 210.53571 L 361.02857 218.89286 L 361.02857 223.90714 L 359.35714 232.26429 L 356.01429 237.27857 L 351.00000 238.95000 z"/>
</svg>