<?xml version="1.0" encoding="UTF-8"?>
<!-- Generated by jsxcad -->
<!DOCTYPE svg PUBLIC "-//W3C//DTD SVG 1.1 Tiny//EN" "http://www.w3.org/Graphics/SVG/1.1/DTD/svg11-tiny.dtd">
<svg baseProfile="tiny" height="126.30985mm" width="195.42857mm" viewBox="-0.00000 21.95186 195.42857 126.30985" version="1.1" stroke="black" stroke-width=".1" fill="none" xmlns="http://www.w3.org/2000/svg">
<path fill="#000000" stroke="#000000" d="M105.64600 71.22431 L105.64604 69.97669 L105.85524 69.87879 L105.86423 69.87637 L105.86839 69.87525 L105.86947 69.87533 L105.88207 69.87626 L105.88329 69.87635 L109.41488 70.75778 L109.42541 70.76041 L109.64552 70.86239 L109.80671 71.04384 L111.32578 73.82136 L111.40561 74.13043 L111.32578 74.43951 L109.80671 77.21703 L109.64552 77.39848 L109.42541 77.50046 L109.41487 77.50309 L105.88273 78.38455 L105.88151 78.38465 L105.86895 78.38558 L105.86787 78.38566 L105.86373 78.38454 L105.85476 78.38212 L105.64621 78.28438 L105.64619 78.09957 L105.64607 76.95078 L105.86787 77.03043 L106.72429 76.72286 L106.95242 76.64093 L108.23701 76.17957 L108.30806 76.03085 L108.62876 75.35954 L109.27897 74.16145 L109.28694 74.13043 L109.27897 74.09942 L108.62876 72.90133 L108.30800 72.22990 L108.23701 72.08130 L107.12667 71.68253 L106.72450 71.53809 L105.86787 71.23043 L105.64599 71.30996 z"/>
<path fill="#000000" stroke="#000000" d="M103.95786 89.28231 L104.37691 88.50013 L104.55605 88.67149 L104.72188 88.83011 L105.96902 88.94810 L107.16407 89.06116 L107.28298 89.08505 L107.29029 89.08512 L107.29682 89.08226 L109.09821 87.71162 L109.13333 87.66632 L109.14101 87.60900 L108.92607 85.77297 L108.90875 85.40971 L108.90366 85.30285 L108.02371 84.46113 L107.04356 83.52357 L107.62091 82.44621 L107.62433 82.43983 L107.65676 82.37932 L110.55264 84.58900 L110.73078 84.78485 L110.82027 85.03556 L111.20890 88.23464 L111.16076 88.59992 L110.93647 88.88859 L108.44299 90.77292 L108.16896 90.89157 L107.86652 90.88726 L104.21178 90.13006 L104.17035 90.11391 L104.13956 90.08804 L103.76386 89.64443 z"/>
<path fill="#000000" stroke="#000000" d="M103.76371 58.61646 L104.14003 58.17266 L104.17084 58.14676 L104.21232 58.13059 L107.86652 57.37361 L108.16896 57.36930 L108.44299 57.48795 L110.93647 59.37228 L111.16076 59.66095 L111.20890 60.02623 L110.82027 63.22531 L110.73078 63.47602 L110.55264 63.67187 L107.65684 65.88136 L107.62427 65.82058 L107.62084 65.81418 L107.04362 64.73724 L107.86673 63.94989 L108.90366 62.95802 L108.92607 62.48790 L109.14101 60.65187 L109.13333 60.59455 L109.09821 60.54925 L107.29682 59.17861 L107.29029 59.17575 L107.28298 59.17582 L107.16407 59.19971 L106.02751 59.30723 L105.85937 59.32314 L104.72188 59.43076 L104.37672 59.76051 L103.95832 58.97967 z"/>
<path fill="#000000" stroke="#000000" d="M53.02672 74.13001 L53.10656 73.82090 L54.63031 71.04042 L54.79198 70.85870 L55.01122 70.75731 L55.02210 70.75460 L58.55025 69.87645 L58.56079 69.87567 L58.56509 69.87535 L58.56616 69.87564 L58.57721 69.87862 L58.57817 69.87888 L58.78640 69.97648 L58.78640 70.08872 L58.78640 70.10109 L58.78644 71.31012 L58.66278 71.26571 L58.56457 71.23043 L57.60232 71.57532 L57.48184 71.61850 L56.33633 72.02907 L56.19882 72.07835 L55.80367 72.90382 L55.15346 74.09942 L55.14550 74.13043 L55.15346 74.16145 L55.80367 75.35954 L56.19542 76.17957 L56.33161 76.22848 L57.30576 76.57834 L57.60075 76.68429 L58.56457 77.03043 L58.66275 76.99517 L58.78636 76.95078 L58.78623 78.15960 L58.78623 78.17197 L58.78622 78.28438 L58.57767 78.38212 L58.57671 78.38238 L58.56564 78.38537 L58.56457 78.38566 L58.56027 78.38534 L58.54970 78.38455 L55.01803 77.50320 L55.00702 77.50046 L54.78691 77.39848 L54.62572 77.21703 L53.10654 74.43909 z"/>
<path fill="#000000" stroke="#000000" d="M53.41110 85.45889 L53.48088 85.18192 L53.65568 84.95496 L56.46987 82.45019 L56.48826 82.43857 L56.50720 82.43401 L56.50826 82.43393 L56.79459 82.41462 L56.86534 82.54665 L57.00795 82.81275 L57.42081 83.58319 L57.15263 83.62943 L56.33290 84.54027 L55.57296 85.38468 L55.41873 85.55605 L55.41872 85.55605 L55.41947 85.57157 L55.42156 85.61471 L55.39809 87.84274 L55.41224 87.89918 L55.45320 87.94093 L57.24475 89.01710 L57.41858 89.13685 L58.63704 88.92599 L58.71464 88.91256 L59.98085 88.69344 L60.03358 88.63478 L60.09256 88.56916 L60.12041 88.62114 L60.16263 88.69994 L60.72636 89.75196 L60.64515 89.86342 L60.63857 89.86983 L60.62927 89.87426 L56.99549 90.92832 L56.71791 90.95533 L56.45181 90.87098 L53.71475 89.24159 L53.45508 88.97787 L53.36604 88.62043 z"/>
<path fill="#000000" stroke="#000000" d="M53.36840 59.63618 L53.45805 59.27771 L53.71715 59.01506 L56.45238 57.38991 L56.71843 57.30559 L56.99599 57.33259 L60.62927 58.38661 L60.63857 58.39104 L60.64515 58.39745 L60.72636 58.50891 L60.16276 59.56087 L60.12048 59.63976 L60.09261 59.69177 L59.98085 59.56743 L58.78788 59.36098 L58.71466 59.34831 L57.41858 59.12402 L57.38270 59.14870 L57.24492 59.24345 L55.45521 60.31636 L55.41436 60.35792 L55.40010 60.41454 L55.42161 62.64606 L55.41949 62.68927 L55.41873 62.70482 L55.41872 62.70482 L55.56992 62.87303 L56.25012 63.62979 L57.14828 64.62904 L57.42154 64.67633 L57.01321 65.43829 L56.86760 65.70999 L56.79549 65.84454 L56.50298 65.82464 L56.50189 65.82456 L56.48248 65.81988 L56.46375 65.80803 L53.65525 63.30506 L53.48045 63.07809 L53.41065 62.80103 z"/>
<path fill="#000000" stroke="#000000" d="M94.25249 69.93382 L94.25249 69.93159 L94.25250 69.91134 L97.35100 70.97664 L97.35496 70.97800 L97.43510 71.02493 L97.49074 71.10053 L98.81126 74.00202 L98.83910 74.13043 L98.81126 74.25885 L97.49074 77.16034 L97.43510 77.23594 L97.35496 77.28287 L97.35100 77.28423 L94.25285 78.34931 L94.25285 78.32859 L94.25285 78.32631 L94.25258 77.01587 L95.07162 76.68783 L96.34060 76.17957 L96.68320 75.37982 L96.74145 75.24383 L97.07278 74.47038 L97.21840 74.13043 L97.21839 74.13040 L97.07246 73.78974 L96.81545 73.18979 L96.71587 72.95732 L96.34060 72.08130 L95.77812 71.85601 L95.45862 71.72804 L94.25241 71.24493 z"/>
<path fill="#000000" stroke="#000000" d="M92.15779 88.15507 L92.30740 88.01052 L93.18862 88.88010 L94.25963 88.90744 L94.32325 88.90906 L95.48619 88.93876 L96.26791 88.13967 L96.54636 87.85504 L96.87600 87.51808 L97.03706 87.35344 L97.03706 87.35341 L97.02513 87.07518 L96.99103 86.28023 L96.97668 85.94586 L96.93838 85.05294 L96.65521 84.77351 L96.28752 84.41068 L96.16210 84.28693 L96.48851 83.97165 L96.53408 83.92763 L97.04852 83.43082 L98.25534 84.46013 L98.29871 84.51397 L98.31858 84.57871 L98.31971 84.58240 L98.32093 84.59427 L98.65502 87.85722 L98.65628 87.86951 L98.64183 88.00174 L98.63687 88.04705 L98.54418 88.19970 L96.36295 90.43993 L96.20930 90.53892 L96.02737 90.56272 L92.74706 90.29219 L92.66930 90.26970 L92.60767 90.22157 L91.42119 88.86678 z"/>
<path fill="#000000" stroke="#000000" d="M91.42044 59.39354 L92.60811 58.03918 L92.66976 57.99104 L92.74754 57.96854 L96.02737 57.69815 L96.20930 57.72195 L96.36295 57.82094 L98.54418 60.06117 L98.63687 60.21382 L98.64176 60.25852 L98.65628 60.39136 L98.65503 60.40358 L98.32093 63.66658 L98.31971 63.67847 L98.31858 63.68216 L98.29871 63.74689 L98.25534 63.80074 L97.04858 64.82995 L96.53403 64.33294 L96.48851 64.28898 L96.16219 63.97386 L96.93838 63.20793 L96.98281 62.17217 L96.98386 62.14766 L97.02515 61.18502 L97.03706 60.90743 L97.03704 60.90742 L96.87566 60.74245 L96.25531 60.10831 L95.80957 59.65268 L95.48619 59.32211 L94.40451 59.34973 L94.34350 59.35129 L93.18862 59.38077 L92.52821 60.03158 L92.30678 60.24979 L92.15872 60.10675 z"/>
<path fill="#000000" stroke="#000000" d="M65.59324 74.12999 L65.62109 74.00157 L66.94563 71.09697 L67.00144 71.02126 L67.08125 70.97460 L67.08534 70.97319 L70.17994 69.91168 L70.18002 71.22932 L70.18002 71.24490 L69.36213 71.57182 L69.06276 71.69148 L68.59548 71.87826 L68.09488 72.07835 L67.71863 72.95487 L67.69268 73.01533 L67.21411 74.13025 L67.21403 74.13043 L67.61698 75.07108 L67.71658 75.30358 L68.09183 76.17957 L68.59158 76.37974 L68.97382 76.53283 L69.06046 76.56753 L70.17985 77.01587 L70.17959 78.31526 L70.17958 78.34931 L67.08161 77.28429 L67.07747 77.28287 L66.99733 77.23594 L66.94169 77.16034 L65.62108 74.25840 L65.59324 74.13000 z"/>
<path fill="#000000" stroke="#000000" d="M65.90277 88.19522 L65.94132 84.95948 L65.94661 84.93492 L65.95007 84.91885 L65.95967 84.87421 L66.00706 84.80428 L67.38123 83.42822 L67.85207 83.88300 L68.26892 84.28564 L67.39557 85.29802 L67.39537 85.29825 L67.44170 86.37184 L67.44667 86.48709 L67.49405 87.58507 L67.65966 87.72555 L68.34779 88.30925 L68.81724 88.70745 L69.18862 89.02246 L70.25345 88.90212 L70.26147 88.90122 L71.48619 88.76281 L72.07541 88.07886 L72.13015 88.01533 L72.42179 88.29709 L72.46955 88.34323 L73.01788 88.87287 L72.16122 90.02619 L72.11553 90.06840 L72.05490 90.09174 L68.78340 90.66397 L68.60768 90.65746 L68.45093 90.57754 L66.05101 88.56443 L65.93938 88.41637 L65.91371 88.29090 L65.90229 88.23509 z"/>
<path fill="#000000" stroke="#000000" d="M65.90434 60.02123 L65.91580 59.96544 L65.94170 59.83932 L66.05313 59.69176 L68.45141 57.68330 L68.60814 57.60339 L68.78386 57.59688 L72.05490 58.16913 L72.11553 58.19247 L72.16122 58.23468 L73.01788 59.38800 L72.46969 59.91762 L72.42187 59.96382 L72.13018 60.24558 L71.72060 59.77016 L71.48619 59.49806 L70.43599 59.37938 L70.26149 59.35966 L69.18862 59.23841 L68.33566 59.96079 L68.01716 60.23053 L67.66149 60.53175 L67.49587 60.67202 L67.44828 61.75671 L67.44471 61.83803 L67.39538 62.96233 L67.39537 62.96262 L68.00667 63.67218 L68.26828 63.97585 L67.85055 64.37933 L67.38053 64.83333 L66.00669 63.45574 L65.95929 63.38579 L65.94969 63.34114 L65.94623 63.32506 L65.94094 63.30047 L65.90479 60.06116 z"/>
<path fill="#000000" stroke="#000000" d="M78.28298 87.96266 L78.30251 86.16671 L78.98746 86.16668 L79.53559 86.16666 L79.58670 87.39650 L79.97117 87.76168 L80.30359 88.07743 L80.60069 88.35962 L81.22360 88.95128 L82.25494 88.90458 L82.39086 88.89842 L83.44296 88.85078 L83.98232 88.24134 L84.10053 88.10777 L84.57314 87.57374 L84.94105 87.15803 L84.94105 87.15796 L84.91153 86.44761 L84.90786 86.35938 L84.90482 86.28634 L84.89984 86.16645 L85.48032 86.16645 L85.53499 86.16645 L86.13298 86.16651 L86.26905 87.61392 L86.26883 87.61619 L86.26851 87.61945 L86.26476 87.65723 L86.24385 87.69684 L84.18765 90.22286 L84.09508 90.29799 L83.97892 90.32901 L80.81484 90.48041 L80.69277 90.45979 L80.59023 90.39128 L78.32306 88.06691 L78.29276 88.02003 L78.28294 87.96671 z"/>
<path fill="#000000" stroke="#000000" d="M78.28485 60.28938 L78.29477 60.23575 L78.32509 60.18892 L80.59068 57.86950 L80.69321 57.80100 L80.81529 57.78038 L83.97892 57.93186 L84.09508 57.96288 L84.18765 58.03801 L86.24385 60.56403 L86.26476 60.60364 L86.26851 60.64142 L86.26883 60.64468 L86.26905 60.64694 L86.13298 62.09436 L85.53496 62.09433 L85.48037 62.09433 L84.89984 62.09439 L84.90791 61.90030 L84.91160 61.81156 L84.94105 61.10284 L84.94101 61.10279 L84.57244 60.68633 L84.29408 60.37180 L84.11596 60.17054 L83.44296 59.41009 L82.41213 59.36341 L82.39082 59.36245 L81.22360 59.30959 L80.52723 59.97007 L80.49768 59.99810 L79.97304 60.49571 L79.58846 60.86046 L79.55086 61.75029 L79.53633 62.09421 L78.98705 62.09419 L78.30323 62.09415 L78.28489 60.29344 z"/>
<path fill="#000000" stroke="#000000" d="M107.16407 59.19971 L107.28298 59.17582 L107.29029 59.17575 L107.29682 59.17861 L109.09821 60.54925 L109.13333 60.59455 L109.14101 60.65187 L108.92607 62.48790 L108.96906 61.58627 L109.01371 60.64963 L108.78737 60.45840 L107.98750 59.78259 L107.28416 59.18835 L107.25164 59.19142 z"/>
<path fill="#000000" stroke="#000000" d="M108.96906 61.58627 L108.90366 62.95802 L107.86673 63.94989 L107.01385 64.76571 L105.09710 64.94705 L104.45158 65.00812 L103.00431 63.78534 L102.72203 63.54684 L102.80971 61.73767 L102.83410 61.23427 L104.06538 60.05796 L104.72188 59.43076 L106.02751 59.30723 L107.28416 59.18835 L107.98750 59.78259 L109.01371 60.64963 z"/>
<path fill="#000000" stroke="#000000" d="M107.16407 89.06116 L107.28416 89.07252 L107.31877 89.04327 L108.32993 88.18896 L109.01371 87.61124 L108.99998 87.32322 L108.94987 86.27219 L108.92607 85.77297 L109.14101 87.60900 L109.13333 87.66632 L109.09821 87.71162 L107.29682 89.08226 L107.29029 89.08512 L107.28298 89.08505 z"/>
<path fill="#000000" stroke="#000000" d="M102.72203 84.71403 L104.10954 83.54369 L104.45593 83.25151 L106.19192 83.41687 L107.01385 83.49516 L108.02371 84.46113 L108.90366 85.30285 L108.94987 86.27219 L109.01371 87.61124 L108.32993 88.18896 L107.28416 89.07252 L105.96902 88.94810 L104.72188 88.83011 L103.36915 87.53616 L102.83207 87.02242 L102.74046 85.10071 z"/>
<path fill="#000000" stroke="#000000" d="M108.62876 72.90133 L109.27897 74.09942 L109.28694 74.13043 L109.27897 74.16145 L108.62876 75.35954 L108.79801 75.00527 L109.21594 74.13043 L109.14393 73.97970 L108.66319 72.97339 z"/>
<path fill="#000000" stroke="#000000" d="M102.51979 74.13043 L103.27792 72.54672 L103.50212 72.07835 L105.06396 71.51857 L105.86787 71.23043 L107.12667 71.68253 L108.23701 72.08130 L108.66319 72.97339 L109.21594 74.13043 L108.79801 75.00527 L108.23701 76.17957 L106.95242 76.64093 L105.86787 77.03043 L104.17174 76.42128 L103.49872 76.17957 L102.70840 74.52523 z"/>
<path fill="#000000" stroke="#000000" d="M96.98386 62.14766 L96.93838 63.20793 L95.84760 64.28428 L95.24381 64.88010 L93.55273 64.92327 L92.94624 64.93876 L91.77790 63.74446 L91.39537 63.35344 L91.46556 61.74391 L91.49587 61.04891 L92.52821 60.03158 L93.18862 59.38077 L94.40451 59.34973 L95.48619 59.32211 L96.25531 60.10831 L97.03706 60.90743 z"/>
<path fill="#000000" stroke="#000000" d="M91.39537 84.90743 L92.56881 83.70978 L92.95015 83.32056 L94.56402 83.36293 L95.24381 83.38077 L96.28752 84.41068 L96.93838 85.05294 L96.99103 86.28023 L97.03706 87.35344 L96.26791 88.13967 L95.48619 88.93876 L94.25963 88.90744 L93.18862 88.88010 L92.11042 87.81615 L91.49405 87.20793 L91.42183 85.52424 z"/>
<path fill="#000000" stroke="#000000" d="M91.21403 74.13043 L91.83245 72.68971 L92.09488 72.07835 L93.47178 71.52799 L94.21622 71.23043 L95.45862 71.72804 L96.34060 72.08130 L96.81545 73.18979 L97.21840 74.13043 L96.74145 75.24383 L96.34060 76.17957 L95.07162 76.68783 L94.21622 77.03043 L92.79054 76.45942 L92.09183 76.17957 L91.46512 74.71658 z"/>
<path fill="#000000" stroke="#000000" d="M84.88012 62.56890 L84.84573 63.39650 L83.69796 64.48670 L83.20883 64.95128 L81.62445 64.87953 L80.98947 64.85078 L79.97682 63.70654 L79.49138 63.15803 L79.55086 61.75029 L79.58846 60.86046 L80.49768 59.99810 L81.22360 59.30959 L82.41213 59.36341 L83.44296 59.41009 L84.29408 60.37180 L84.94105 61.10284 z"/>
<path fill="#000000" stroke="#000000" d="M79.49138 85.10284 L80.53726 83.92277 L80.99324 83.40827 L82.57806 83.33768 L83.20883 83.30959 L84.32508 84.36984 L84.84573 84.86437 L84.90482 86.28634 L84.94105 87.15803 L84.10053 88.10777 L83.44296 88.85078 L82.25494 88.90458 L81.22360 88.95128 L80.30359 88.07743 L79.58670 87.39650 L79.52657 85.94955 z"/>
<path fill="#000000" stroke="#000000" d="M79.31622 74.13043 L79.84801 72.84788 L80.16708 72.07835 L81.44779 71.54840 L82.21622 71.23043 L83.49877 71.76222 L84.26830 72.08130 L84.79825 73.36201 L85.11622 74.13043 L84.58627 75.41115 L84.26830 76.17957 L82.98575 76.71136 L82.21622 77.03043 L80.93367 76.49865 L80.16413 76.17957 L79.63419 74.89886 z"/>
<path fill="#000000" stroke="#000000" d="M55.41436 60.35792 L55.45521 60.31636 L57.24492 59.24345 L56.28786 59.90162 L55.53080 60.42225 L55.51629 60.71775 L55.46486 61.76525 L55.42161 62.64606 L55.40010 60.41454 z"/>
<path fill="#000000" stroke="#000000" d="M61.61844 63.39612 L61.60036 63.77058 L60.10764 64.79890 L59.71055 65.07245 L58.01232 64.77856 L57.14828 64.62904 L56.25012 63.62979 L55.41872 62.70482 L55.46486 61.76525 L55.53080 60.42225 L56.28786 59.90162 L57.41858 59.12402 L58.78788 59.36098 L59.98085 59.56743 L61.25313 60.98290 L61.71041 61.49165 z"/>
<path fill="#000000" stroke="#000000" d="M55.39809 87.84274 L55.42156 85.61471 L55.48487 86.92586 L55.52877 87.83498 L55.77109 88.00191 L56.63561 88.59747 L57.24475 89.01710 L55.45320 87.94093 L55.41224 87.89918 z"/>
<path fill="#000000" stroke="#000000" d="M55.41872 85.55605 L56.33290 84.54027 L57.15263 83.62943 L59.01757 83.30790 L59.71055 83.18842 L61.28820 84.27525 L61.60036 84.49029 L61.68768 86.29862 L61.71041 86.76922 L60.55451 88.05522 L59.98085 88.69344 L58.63704 88.92599 L57.41858 89.13685 L56.63561 88.59747 L55.52877 87.83498 L55.48487 86.92586 z"/>
<path fill="#000000" stroke="#000000" d="M55.15346 74.09942 L55.80367 72.90382 L55.63597 73.25415 L55.21649 74.13043 L55.28850 74.28117 L55.76925 75.28748 L55.80367 75.35954 L55.15346 74.16145 L55.14550 74.13043 z"/>
<path fill="#000000" stroke="#000000" d="M61.15699 75.71219 L60.93371 76.17957 L59.36948 76.74136 L58.56457 77.03043 L57.30576 76.57834 L56.19542 76.17957 L55.76925 75.28748 L55.21649 74.13043 L55.63597 73.25415 L56.19882 72.07835 L57.48184 71.61850 L58.56457 71.23043 L60.26069 71.83959 L60.93371 72.08130 L61.72403 73.73564 L61.91264 74.13043 z"/>
<path fill="#000000" stroke="#000000" d="M72.96418 62.98714 L72.93838 63.58507 L71.66371 64.66629 L71.24381 65.02246 L69.64722 64.84203 L68.94624 64.76281 L68.00667 63.67218 L67.39537 62.96262 L67.44828 61.75671 L67.49587 60.67202 L68.33566 59.96079 L69.18862 59.23841 L70.43599 59.37938 L71.48619 59.49806 L72.49230 60.66591 L73.03706 61.29825 z"/>
<path fill="#000000" stroke="#000000" d="M67.39537 85.29825 L68.37681 84.16058 L68.95015 83.49597 L70.62207 83.30822 L71.24381 83.23841 L72.52403 84.32433 L72.93838 84.67580 L73.00814 86.29250 L73.03706 86.96262 L72.07541 88.07886 L71.48619 88.76281 L70.25345 88.90212 L69.18862 89.02246 L68.34779 88.30925 L67.49405 87.58507 L67.44170 86.37184 z"/>
<path fill="#000000" stroke="#000000" d="M67.21403 74.13043 L67.69268 73.01533 L68.09488 72.07835 L69.36213 71.57182 L70.21622 71.23043 L71.64189 71.80145 L72.34060 72.08130 L72.96731 73.54429 L73.21840 74.13043 L72.60206 75.56923 L72.34060 76.17957 L70.96166 76.73187 L70.21622 77.03043 L68.97382 76.53283 L68.09183 76.17957 L67.61698 75.07108 z"/>
<path stroke="#000000" d="M 0.00000 21.95186 L 164.50000 21.95186 L 164.50000 126.28520 L 0.00000 126.28520 z"/>
<path stroke="#000000" d="M 4.40816 145.32293 L 5.87755 146.05763 L 8.08163 148.26171 L 8.08163 132.83314"/>
<path stroke="#000000" d="M 26.44898 146.05763 L 25.71429 147.52702 L 23.51020 148.26171 L 22.04082 148.26171 L 19.83673 147.52702 L 18.36735 145.32293 L 17.63265 141.64946 L 17.63265 137.97599 L 18.36735 135.03722 L 19.83673 133.56783 L 22.04082 132.83314 L 22.77551 132.83314 L 24.97959 133.56783 L 26.44898 135.03722 L 27.18367 137.24130 L 27.18367 137.97599 L 26.44898 140.18008 L 24.97959 141.64946 L 22.77551 142.38416 L 22.04082 142.38416 L 19.83673 141.64946 L 18.36735 140.18008 L 17.63265 137.97599"/>
<path stroke="#000000" d="M 38.93878 148.26171 L 31.59184 137.97599 L 42.61224 137.97599 M 38.93878 148.26171 L 38.93878 132.83314"/>
<path stroke="#000000" d="M 47.75510 134.30253 L 47.02041 133.56783 L 47.75510 132.83314 L 48.48980 133.56783 z"/>
<path stroke="#000000" d="M 60.97959 148.26171 L 53.63265 137.97599 L 64.65306 137.97599 M 60.97959 148.26171 L 60.97959 132.83314"/>
<path stroke="#000000" d="M 69.79592 148.26171 L 77.87755 148.26171 L 73.46939 142.38416 L 75.67347 142.38416 L 77.14286 141.64946 L 77.87755 140.91477 L 78.61224 138.71069 L 78.61224 137.24130 L 77.87755 135.03722 L 76.40816 133.56783 L 74.20408 132.83314 L 72.00000 132.83314 L 69.79592 133.56783 L 69.06122 134.30253 L 68.32653 135.77191"/>
<path stroke="#000000" d=""/>
<path stroke="#000000" d="M 94.77551 143.11885 L 102.85714 132.83314 M 102.85714 143.11885 L 94.77551 132.83314"/>
<path stroke="#000000" d=""/>
<path stroke="#000000" d="M 121.22449 145.32293 L 122.69388 146.05763 L 124.89796 148.26171 L 124.89796 132.83314"/>
<path stroke="#000000" d="M 138.12245 148.26171 L 135.91837 147.52702 L 134.44898 145.32293 L 133.71429 141.64946 L 133.71429 139.44538 L 134.44898 135.77191 L 135.91837 133.56783 L 138.12245 132.83314 L 139.59184 132.83314 L 141.79592 133.56783 L 143.26531 135.77191 L 144.00000 139.44538 L 144.00000 141.64946 L 143.26531 145.32293 L 141.79592 147.52702 L 139.59184 148.26171 z"/>
<path stroke="#000000" d="M 155.75510 148.26171 L 148.40816 137.97599 L 159.42857 137.97599 M 155.75510 148.26171 L 155.75510 132.83314"/>
<path stroke="#000000" d="M 164.57143 134.30253 L 163.83673 133.56783 L 164.57143 132.83314 L 165.30612 133.56783 z"/>
<path stroke="#000000" d="M 171.91837 148.26171 L 180.00000 148.26171 L 175.59184 142.38416 L 177.79592 142.38416 L 179.26531 141.64946 L 180.00000 140.91477 L 180.73469 138.71069 L 180.73469 137.24130 L 180.00000 135.03722 L 178.53061 133.56783 L 176.32653 132.83314 L 174.12245 132.83314 L 171.91837 133.56783 L 171.18367 134.30253 L 170.44898 135.77191"/>
<path stroke="#000000" d="M 193.95918 148.26171 L 186.61224 148.26171 L 185.87755 141.64946 L 186.61224 142.38416 L 188.81633 143.11885 L 191.02041 143.11885 L 193.22449 142.38416 L 194.69388 140.91477 L 195.42857 138.71069 L 195.42857 137.24130 L 194.69388 135.03722 L 193.22449 133.56783 L 191.02041 132.83314 L 188.81633 132.83314 L 186.61224 133.56783 L 185.87755 134.30253 L 185.14286 135.77191"/>
</svg>