<?xml version="1.0" encoding="UTF-8"?>
<!-- Generated by jsxcad -->
<!DOCTYPE svg PUBLIC "-//W3C//DTD SVG 1.1 Tiny//EN" "http://www.w3.org/Graphics/SVG/1.1/DTD/svg11-tiny.dtd">
<svg baseProfile="tiny" height="119.84271mm" width="180.73469mm" viewBox="-0.00000 21.56952 180.73469 119.84271" version="1.1" stroke="black" stroke-width=".1" fill="none" xmlns="http://www.w3.org/2000/svg">
<path fill="#000000" stroke="#000000" d="M105.64603 66.73786 L105.64604 66.55214 L105.85524 66.45424 L105.85570 66.45412 L105.86839 66.45070 L105.86839 66.45070 L105.86839 66.45070 L105.88271 66.45176 L105.88329 66.45180 L109.41189 67.33249 L109.42188 67.33498 L109.42541 67.33586 L109.64552 67.43784 L109.80671 67.61929 L111.32578 70.39680 L111.40561 70.70588 L111.32578 71.01496 L109.80671 73.79248 L109.64552 73.97393 L109.42541 74.07591 L109.42188 74.07679 L109.41189 74.07928 L105.88273 74.96000 L105.88215 74.96005 L105.86787 74.96110 L105.86787 74.96110 L105.86787 74.96110 L105.85522 74.95769 L105.85476 74.95757 L105.64621 74.85983 L105.64619 74.67502 L105.64607 73.52622 L105.86787 73.60588 L107.09005 73.16694 L108.23701 72.75502 L108.30806 72.60630 L108.62876 71.93499 L109.27897 70.73690 L109.28694 70.70588 L109.27897 70.67487 L108.62876 69.47677 L108.23701 68.65675 L107.09003 68.24481 L105.86787 67.80588 L105.64599 67.88540 z"/>
<path fill="#000000" stroke="#000000" d="M104.37543 85.07823 L104.41446 85.00538 L105.86787 85.74027 L106.43807 85.60458 L107.28985 85.40188 L108.26247 85.26365 L108.30581 85.24730 L108.33515 85.21365 L109.29509 83.23706 L109.30259 83.19775 L109.29071 83.15807 L108.88508 82.42491 L108.23701 80.93381 L107.59963 80.61153 L106.94600 80.28103 L107.20069 79.80576 L107.22731 79.75610 L107.52815 79.19477 L109.38256 79.88851 L109.51077 79.96308 L109.61168 80.08363 L111.32960 83.14692 L111.43164 83.48268 L111.36824 83.81798 L110.04642 86.54166 L109.81731 86.80366 L109.48092 86.92910 L106.04460 87.39777 L105.86787 87.38776 L105.71371 87.32113 L103.83247 86.09170 z"/>
<path fill="#000000" stroke="#000000" d="M103.83190 55.31917 L105.71420 54.09061 L105.86837 54.02397 L106.04515 54.01396 L109.48092 54.48266 L109.81731 54.60810 L110.04642 54.87010 L111.36824 57.59378 L111.43164 57.92908 L111.32960 58.26485 L109.61168 61.32813 L109.51077 61.44869 L109.38256 61.52325 L107.52821 62.21692 L107.22731 61.65541 L107.20072 61.60580 L106.94607 61.13070 L108.23701 60.47796 L108.44656 59.99582 L108.88508 58.98686 L109.29071 58.25369 L109.30259 58.21401 L109.29509 58.17470 L108.33515 56.19812 L108.30581 56.16447 L108.26247 56.14812 L107.28985 56.00988 L105.86787 55.67150 L104.41399 56.40552 L104.37609 56.33478 z"/>
<path fill="#000000" stroke="#000000" d="M53.02672 70.70546 L53.10656 70.39634 L54.63031 67.61586 L54.79198 67.43415 L55.01122 67.33276 L55.01471 67.33189 L55.02474 67.32939 L58.55025 66.45190 L58.55083 66.45185 L58.56508 66.45080 L58.56508 66.45080 L58.56509 66.45080 L58.57772 66.45420 L58.57817 66.45433 L58.78640 66.55192 L58.78640 66.66417 L58.78640 66.67654 L58.78644 67.88557 L58.56457 67.80588 L57.60232 68.15077 L56.33633 68.60452 L56.19882 68.65380 L55.80367 69.47927 L55.15346 70.67487 L55.14550 70.70588 L55.15346 70.73690 L55.80367 71.93499 L56.19542 72.75502 L56.33161 72.80393 L57.60075 73.25974 L58.56457 73.60588 L58.78636 73.52623 L58.78623 74.73505 L58.78623 74.74742 L58.78622 74.85983 L58.57767 74.95757 L58.57722 74.95769 L58.56457 74.96110 L58.56457 74.96110 L58.56457 74.96110 L58.55029 74.96005 L58.54970 74.96000 L55.02055 74.07928 L55.01060 74.07680 L55.00702 74.07591 L54.78691 73.97393 L54.62572 73.79248 L53.10654 71.01453 z"/>
<path fill="#000000" stroke="#000000" d="M53.00072 83.48226 L53.10277 83.14646 L54.82567 80.07943 L54.92671 79.95889 L55.05418 79.88485 L56.90391 79.19409 L57.34784 80.02247 L57.48607 80.28040 L57.17384 80.43804 L56.72896 80.66265 L56.19882 80.93030 L55.54770 82.42556 L55.14172 83.15807 L55.12984 83.19775 L55.13735 83.23706 L56.09728 85.21365 L56.12662 85.24730 L56.16996 85.26365 L57.14258 85.40188 L58.12191 85.63493 L58.56457 85.74027 L60.01794 85.00540 L60.19853 85.34249 L60.23111 85.40332 L60.59997 86.09170 L58.71872 87.32113 L58.56457 87.38776 L58.38783 87.39777 L54.95151 86.92910 L54.61513 86.80366 L54.38601 86.54166 L53.06411 83.81754 z"/>
<path fill="#000000" stroke="#000000" d="M53.06408 57.59328 L54.39028 54.86715 L54.62028 54.60462 L54.95559 54.47990 L58.38839 54.01421 L58.56507 54.02422 L58.71921 54.09084 L60.60004 55.32007 L60.23128 56.00838 L60.19864 56.06928 L60.01801 56.40640 L59.28212 56.03431 L58.56457 55.67150 L58.12273 55.77631 L57.99497 55.80661 L57.14324 56.00866 L56.17339 56.14576 L56.13029 56.16198 L56.10088 56.19564 L55.13735 58.17470 L55.12984 58.21401 L55.14172 58.25369 L55.54735 58.98686 L56.19542 60.47796 L56.72312 60.74478 L57.17192 60.97171 L57.48639 61.13071 L57.34723 61.39034 L56.90422 62.21692 L55.04987 61.52325 L54.92166 61.44869 L54.82075 61.32813 L53.10270 58.26440 L53.00066 57.92863 z"/>
<path fill="#000000" stroke="#000000" d="M98.83910 70.70588 L98.81126 70.83430 L97.49074 73.73579 L97.43510 73.81139 L97.35496 73.85832 L97.35364 73.85877 L97.34987 73.86006 L94.25285 74.92476 L94.25285 74.90404 L94.25285 74.90176 L94.25258 73.59132 L95.77815 72.98030 L96.34060 72.75502 L96.68320 71.95527 L97.07278 71.04583 L97.21840 70.70588 L97.21839 70.70585 L97.07246 70.36519 L96.71587 69.53277 L96.34060 68.65675 L95.77812 68.43146 L94.25241 67.82038 L94.25249 66.50927 L94.25249 66.50704 L94.25250 66.48678 L97.34988 67.55170 L97.35364 67.55299 L97.35496 67.55345 L97.43510 67.60038 L97.49074 67.67597 L98.81126 70.57747 L98.83910 70.70588 z"/>
<path fill="#000000" stroke="#000000" d="M98.83679 83.09937 L98.82616 83.16749 L97.67781 86.12500 L97.56859 86.28634 L97.39908 86.38374 L94.35351 87.31757 L94.21622 87.32895 L94.08735 87.28566 L91.21835 85.63800 L91.35565 85.50535 L92.17054 84.71815 L92.69136 84.97018 L93.12696 85.18097 L94.21622 85.70807 L95.05522 85.41831 L96.34060 84.97439 L96.51776 84.55853 L97.09374 83.20647 L97.21840 82.91385 L97.21839 82.91382 L97.05737 82.51355 L96.35403 80.76509 L96.34060 80.73170 L96.33056 80.72684 L96.31177 80.71775 L96.32070 80.70913 L96.38741 80.64469 L97.26413 79.79799 L97.31798 79.81971 L97.31993 79.82096 L97.32139 79.82293 L98.81264 82.89049 L98.83804 82.98802 L98.84813 83.02675 z"/>
<path fill="#000000" stroke="#000000" d="M91.21687 55.77235 L94.08781 54.12614 L94.21667 54.08285 L94.35398 54.09423 L97.39908 55.02803 L97.56859 55.12542 L97.67781 55.28677 L98.82616 58.24428 L98.83679 58.31240 L98.84813 58.38502 L98.83804 58.42374 L98.81264 58.52128 L97.32139 61.58884 L97.31993 61.59081 L97.31798 61.59205 L97.26414 61.61378 L96.38741 60.76689 L96.32078 60.70254 L96.31189 60.69396 L96.34060 60.68006 L96.77476 59.60078 L97.05778 58.89721 L97.21840 58.49791 L97.21839 58.49788 L97.09350 58.20472 L96.87979 57.70305 L96.34060 56.43738 L95.63403 56.19336 L94.21622 55.70370 L93.13155 56.22766 L92.16935 56.69247 L91.34730 55.89834 z"/>
<path fill="#000000" stroke="#000000" d="M67.21403 70.70588 L67.71658 71.87903 L68.09183 72.75502 L68.59158 72.95518 L69.06046 73.14298 L70.17985 73.59132 L70.17959 74.89071 L70.17958 74.92476 L67.08256 73.86007 L67.07881 73.85878 L67.07747 73.85832 L66.99733 73.81139 L66.94169 73.73579 L65.62108 70.83385 L65.59324 70.70545 L65.59324 70.70544 L65.62109 70.57702 L66.94563 67.67241 L67.00144 67.59671 L67.08125 67.55004 L67.08256 67.54959 L67.08634 67.54830 L70.17994 66.48713 L70.17994 66.52136 L70.18002 67.82035 L69.06276 68.26693 L68.59548 68.45371 L68.09488 68.65380 L67.71863 69.53032 L67.21411 70.70570 z"/>
<path fill="#000000" stroke="#000000" d="M70.34508 87.28566 L70.21622 87.32895 L70.07893 87.31757 L67.03335 86.38374 L66.86385 86.28634 L66.75463 86.12500 L65.60620 83.16701 L65.59557 83.09891 L65.58424 83.02630 L65.59432 82.98758 L65.61973 82.89004 L67.11526 79.81894 L67.11658 79.81717 L67.11833 79.81606 L67.16680 79.79654 L67.23042 79.85798 L68.11936 80.71662 L68.09488 80.72845 L68.08341 80.75688 L67.21411 82.91366 L67.21403 82.91385 L67.55265 83.70873 L68.09183 84.97439 L68.28301 85.04041 L69.61324 85.49982 L70.21622 85.70807 L72.26186 84.71817 L72.28623 84.74171 L72.35175 84.80502 L73.21408 85.63800 z"/>
<path fill="#000000" stroke="#000000" d="M67.21403 58.49791 L68.07844 60.64677 L68.09183 60.68006 L68.12058 60.69397 L67.23891 61.54558 L67.16830 61.61378 L67.11445 61.59205 L67.11250 61.59081 L67.11105 61.58884 L65.61968 58.52082 L65.59428 58.42328 L65.58419 58.38455 L65.59553 58.31193 L65.60616 58.24379 L66.75829 55.28335 L66.86799 55.12158 L67.03703 55.02463 L70.07941 54.09434 L70.21667 54.08296 L70.34553 54.12626 L73.21409 55.77377 L72.35194 56.60675 L72.28631 56.67014 L72.26197 56.69365 L70.92878 56.04851 L70.21622 55.70370 L69.61465 55.91095 L69.37841 55.99234 L68.09488 56.43454 L67.80877 57.10474 L67.21411 58.49773 z"/>
<path fill="#000000" stroke="#000000" d="M85.37206 85.84085 L85.32539 85.92066 L85.24968 85.97647 L82.34463 87.30111 L82.21622 87.32895 L82.08780 87.30111 L79.18275 85.97647 L79.10704 85.92066 L79.06038 85.84085 L77.99746 82.74216 L78.02055 82.74216 L79.33070 82.74211 L79.93988 84.26617 L80.16413 84.82722 L80.56932 85.00115 L81.46639 85.38621 L82.21622 85.70807 L83.39179 85.20346 L84.26830 84.82722 L84.75434 83.61122 L84.86859 83.32539 L85.10184 82.74186 L86.36570 82.74181 L86.41261 82.74181 L86.41485 82.74181 L86.43519 82.74181 z"/>
<path fill="#000000" stroke="#000000" d="M86.41486 58.66996 L86.41262 58.66996 L86.36585 58.66996 L85.10184 58.66990 L84.86813 58.08522 L84.49257 57.14562 L84.26830 56.58454 L83.13239 56.09696 L82.21622 55.70370 L81.46864 56.02394 L81.04307 56.20624 L80.16708 56.58149 L79.33072 58.66966 L79.31531 58.66966 L77.99712 58.66960 L79.06378 55.56714 L79.11071 55.48700 L79.18631 55.43136 L82.08825 54.11074 L82.21666 54.08291 L82.34508 54.11075 L85.24968 55.43530 L85.32539 55.49110 L85.37206 55.57092 L86.43519 58.66996 z"/>
<path fill="#000000" stroke="#000000" d="M107.28985 56.00988 L108.26247 56.14812 L108.30581 56.16447 L108.33515 56.19812 L109.29509 58.17470 L109.30259 58.21401 L109.29071 58.25369 L108.88508 58.98686 L108.73999 58.71609 L108.63447 58.51918 L108.52660 58.31786 L108.36919 58.02411 L107.96635 57.27235 z"/>
<path fill="#000000" stroke="#000000" d="M109.29509 83.23706 L108.33515 85.21365 L108.30581 85.24730 L108.26247 85.26365 L107.28985 85.40188 L107.96635 84.13942 L108.36958 83.38692 L108.52660 83.09390 L108.63466 82.89224 L108.73999 82.69568 L108.88508 82.42491 L109.29071 83.15807 L109.30259 83.19775 z"/>
<path fill="#000000" stroke="#000000" d="M108.62876 69.47677 L109.27897 70.67487 L109.28694 70.70588 L109.27897 70.73690 L108.62876 71.93499 L108.62876 71.21448 L108.62876 70.91634 L108.62876 70.70588 L108.62876 70.49500 L108.62876 70.19729 z"/>
<path fill="#000000" stroke="#000000" d="M56.84745 56.56065 L55.90583 58.31786 L55.54735 58.98686 L55.14172 58.25369 L55.12984 58.21401 L55.13735 58.17470 L56.10088 56.19564 L56.13029 56.16198 L56.17339 56.14576 L57.14324 56.00866 z"/>
<path fill="#000000" stroke="#000000" d="M55.12984 83.19775 L55.14172 83.15807 L55.54770 82.42556 L55.90583 83.09390 L56.84584 84.84811 L57.14258 85.40188 L56.16996 85.26365 L56.12662 85.24730 L56.09728 85.21365 L55.13735 83.23706 z"/>
<path fill="#000000" stroke="#000000" d="M55.15346 70.73690 L55.14550 70.70588 L55.15346 70.67487 L55.80367 69.47927 L55.80367 70.70588 L55.80367 71.93499 z"/>
<path stroke="#000000" d="M 0.00000 21.56952 L 164.50000 21.56952 L 164.50000 119.90285 L 0.00000 119.90285 z"/>
<path stroke="#000000" d="M 4.40816 138.47346 L 5.87755 139.20815 L 8.08163 141.41223 L 8.08163 125.98366"/>
<path stroke="#000000" d="M 26.44898 139.20815 L 25.71429 140.67754 L 23.51020 141.41223 L 22.04082 141.41223 L 19.83673 140.67754 L 18.36735 138.47346 L 17.63265 134.79999 L 17.63265 131.12652 L 18.36735 128.18774 L 19.83673 126.71835 L 22.04082 125.98366 L 22.77551 125.98366 L 24.97959 126.71835 L 26.44898 128.18774 L 27.18367 130.39182 L 27.18367 131.12652 L 26.44898 133.33060 L 24.97959 134.79999 L 22.77551 135.53468 L 22.04082 135.53468 L 19.83673 134.79999 L 18.36735 133.33060 L 17.63265 131.12652"/>
<path stroke="#000000" d="M 38.93878 141.41223 L 31.59184 131.12652 L 42.61224 131.12652 M 38.93878 141.41223 L 38.93878 125.98366"/>
<path stroke="#000000" d="M 47.75510 127.45305 L 47.02041 126.71835 L 47.75510 125.98366 L 48.48980 126.71835 z"/>
<path stroke="#000000" d="M 60.97959 141.41223 L 53.63265 131.12652 L 64.65306 131.12652 M 60.97959 141.41223 L 60.97959 125.98366"/>
<path stroke="#000000" d="M 69.79592 141.41223 L 77.87755 141.41223 L 73.46939 135.53468 L 75.67347 135.53468 L 77.14286 134.79999 L 77.87755 134.06529 L 78.61224 131.86121 L 78.61224 130.39182 L 77.87755 128.18774 L 76.40816 126.71835 L 74.20408 125.98366 L 72.00000 125.98366 L 69.79592 126.71835 L 69.06122 127.45305 L 68.32653 128.92244"/>
<path stroke="#000000" d=""/>
<path stroke="#000000" d="M 94.77551 136.26937 L 102.85714 125.98366 M 102.85714 136.26937 L 94.77551 125.98366"/>
<path stroke="#000000" d=""/>
<path stroke="#000000" d="M 128.57143 136.26937 L 127.83673 134.06529 L 126.36735 132.59591 L 124.16327 131.86121 L 123.42857 131.86121 L 121.22449 132.59591 L 119.75510 134.06529 L 119.02041 136.26937 L 119.02041 137.00407 L 119.75510 139.20815 L 121.22449 140.67754 L 123.42857 141.41223 L 124.16327 141.41223 L 126.36735 140.67754 L 127.83673 139.20815 L 128.57143 136.26937 L 128.57143 132.59591 L 127.83673 128.92244 L 126.36735 126.71835 L 124.16327 125.98366 L 122.69388 125.98366 L 120.48980 126.71835 L 119.75510 128.18774"/>
<path stroke="#000000" d="M 137.38776 141.41223 L 135.18367 140.67754 L 134.44898 139.20815 L 134.44898 137.73876 L 135.18367 136.26937 L 136.65306 135.53468 L 139.59184 134.79999 L 141.79592 134.06529 L 143.26531 132.59591 L 144.00000 131.12652 L 144.00000 128.92244 L 143.26531 127.45305 L 142.53061 126.71835 L 140.32653 125.98366 L 137.38776 125.98366 L 135.18367 126.71835 L 134.44898 127.45305 L 133.71429 128.92244 L 133.71429 131.12652 L 134.44898 132.59591 L 135.91837 134.06529 L 138.12245 134.79999 L 141.06122 135.53468 L 142.53061 136.26937 L 143.26531 137.73876 L 143.26531 139.20815 L 142.53061 140.67754 L 140.32653 141.41223 z"/>
<path stroke="#000000" d="M 149.87755 127.45305 L 149.14286 126.71835 L 149.87755 125.98366 L 150.61224 126.71835 z"/>
<path stroke="#000000" d="M 156.48980 137.73876 L 156.48980 138.47346 L 157.22449 139.94284 L 157.95918 140.67754 L 159.42857 141.41223 L 162.36735 141.41223 L 163.83673 140.67754 L 164.57143 139.94284 L 165.30612 138.47346 L 165.30612 137.00407 L 164.57143 135.53468 L 163.10204 133.33060 L 155.75510 125.98366 L 166.04082 125.98366"/>
<path stroke="#000000" d="M 180.73469 141.41223 L 173.38776 125.98366 M 170.44898 141.41223 z"/>
</svg>