<?xml version="1.0" encoding="UTF-8"?>
<!-- Generated by jsxcad -->
<!DOCTYPE svg PUBLIC "-//W3C//DTD SVG 1.1 Tiny//EN" "http://www.w3.org/Graphics/SVG/1.1/DTD/svg11-tiny.dtd">
<svg baseProfile="tiny" height="118.61247mm" width="163.85000mm" viewBox="-0.00000 21.30783 163.85000 118.61247" version="1.1" stroke="black" stroke-width=".1" fill="none" xmlns="http://www.w3.org/2000/svg">
<path fill="#000000" stroke="#000000" d="M101.96455 71.62474 L102.10281 71.91415 L102.14819 72.00914 L102.72218 72.21528 L104.02000 72.68139 L104.51733 72.86000 L104.70767 72.79164 L104.94731 72.70558 L106.94508 72.19535 L107.04672 72.14774 L107.12023 72.06441 L108.17865 70.11414 L108.21823 69.96000 L108.17865 69.80586 L107.12023 67.85559 L107.04672 67.77226 L106.94508 67.72465 L104.94731 67.21442 L104.70767 67.12836 L104.51733 67.06000 L104.02266 67.23730 L102.72523 67.70232 L102.15159 67.90792 L102.10525 68.00472 L101.96455 68.29864 L101.96456 68.06008 L101.96456 67.74580 L101.96456 67.28827 L101.96458 66.64169 L104.36692 65.51756 L104.51783 65.47686 L104.51783 65.47686 L104.51784 65.47686 L104.68902 65.48955 L108.08684 66.33759 L108.09523 66.33968 L108.13785 66.35032 L108.49737 66.51689 L108.76066 66.81327 L110.23551 69.50992 L110.35175 69.96000 L110.23551 70.41008 L108.76066 73.10673 L108.49737 73.40311 L108.13785 73.56968 L108.09524 73.58031 L108.08683 73.58241 L104.68847 74.43049 L104.51734 74.44317 L104.51734 74.44317 L104.51733 74.44317 L104.36643 74.40248 L101.96463 73.27682 L101.96456 72.62712 L101.96456 72.16807 L101.96456 71.85969 z"/>
<path fill="#000000" stroke="#000000" d="M99.44102 81.69550 L99.46262 81.61216 L99.46427 81.60577 L100.87087 78.78046 L100.88176 78.75859 L100.88507 78.75195 L100.93897 78.68381 L101.02086 78.63910 L104.25451 77.58005 L104.51783 77.54455 L104.51783 77.54454 L104.81608 77.60519 L108.20366 78.87251 L108.72088 79.17331 L109.12800 79.65967 L110.70613 82.47368 L110.93733 83.23451 L110.79368 83.99428 L109.58716 86.48039 L109.07459 87.06652 L108.32206 87.34715 L105.16775 87.77735 L104.51733 87.74052 L103.95000 87.49530 L100.92545 85.51869 L100.68098 85.29767 L100.54270 85.04607 L100.51647 84.96767 L100.49050 84.89002 L99.45529 81.79529 L99.44356 81.71331 z M108.76527 82.94383 L108.64188 82.53178 L107.51830 80.50093 L107.30942 80.24895 L107.03893 80.08992 L104.65059 79.18063 L104.51733 79.15293 L104.39786 79.16858 L102.14082 79.89753 L102.12451 79.90638 L102.11371 79.92000 L101.12805 81.90075 L101.12282 81.92104 L101.12609 81.94347 L101.89437 84.20777 L101.95876 84.32387 L102.07070 84.42416 L104.21811 85.80976 L104.51733 85.93739 L104.85454 85.95491 L107.12553 85.63215 L107.53248 85.47862 L107.80798 85.16264 L108.68730 83.35206 z"/>
<path fill="#000000" stroke="#000000" d="M110.70613 57.44632 L109.12800 60.26033 L108.72088 60.74669 L108.20366 61.04749 L104.81554 62.31492 L104.51733 62.37555 L104.51733 62.37555 L104.25402 62.34004 L101.01676 61.27749 L100.93475 61.23265 L100.88115 61.16479 L100.87787 61.15818 L100.86700 61.13632 L99.46423 58.31333 L99.46257 58.30696 L99.44097 58.22359 L99.44351 58.20580 L99.45525 58.12376 L100.49369 55.02606 L100.51974 54.94836 L100.54611 54.86970 L100.68518 54.61702 L100.92933 54.39655 L103.95050 52.42465 L104.51780 52.17945 L105.16826 52.14261 L108.32206 52.57285 L109.07459 52.85348 L109.58716 53.43961 L110.79368 55.92572 L110.93733 56.68549 z M108.76527 56.97617 L108.68730 56.56794 L107.80798 54.75736 L107.53248 54.44138 L107.12553 54.28785 L104.85454 53.96509 L104.51733 53.98261 L104.21811 54.11024 L102.07385 55.49197 L101.96203 55.59204 L101.89719 55.70876 L101.12609 57.97653 L101.12282 57.99896 L101.12805 58.01925 L102.11051 59.99734 L102.12120 60.01085 L102.13749 60.01970 L104.39786 60.75142 L104.51733 60.76707 L104.65059 60.73937 L107.03893 59.83008 L107.30942 59.67105 L107.51830 59.41907 L108.64188 57.38822 z"/>
<path fill="#000000" stroke="#000000" d="M52.14815 69.95959 L52.26442 69.50946 L53.74380 66.80993 L54.00800 66.51298 L54.36626 66.34729 L54.40874 66.33672 L54.41722 66.33461 L57.81208 65.48963 L57.98316 65.47696 L57.98316 65.47696 L57.98317 65.47696 L58.13406 65.51765 L60.53542 66.64318 L60.53551 67.93760 L60.53552 68.06035 L60.53553 68.29542 L60.39720 68.00588 L60.35181 67.91086 L59.64262 67.65616 L57.98267 67.06000 L57.83281 67.11371 L57.55269 67.21411 L55.55835 67.72209 L55.45721 67.76938 L55.38349 67.85281 L54.32135 69.80586 L54.28177 69.96000 L54.32135 70.11414 L55.37977 72.06441 L55.45328 72.14774 L55.55492 72.19535 L57.55269 72.70558 L57.83257 72.80609 L57.98267 72.86000 L59.64285 72.26376 L60.35181 72.00914 L60.53546 71.62471 L60.53544 71.85972 L60.53543 71.98231 L60.53537 73.27682 L58.13357 74.40248 L57.98268 74.44317 L57.98268 74.44317 L57.98267 74.44317 L57.81153 74.43049 L54.41318 73.58241 L54.40487 73.58034 L54.36215 73.56968 L54.00263 73.40311 L53.73934 73.10673 L52.26439 70.40967 z"/>
<path fill="#000000" stroke="#000000" d="M51.56260 83.23412 L51.79385 82.47321 L53.37655 79.65575 L53.78503 79.16840 L54.30040 78.86909 L57.68501 77.60513 L57.98316 77.54451 L57.98316 77.54451 L58.24646 77.58002 L61.48324 78.64251 L61.56525 78.68735 L61.61885 78.75521 L61.62212 78.76179 L61.63299 78.78367 L63.03566 81.60622 L63.03731 81.61258 L63.05892 81.69597 L63.05638 81.71376 L63.04465 81.79578 L62.00949 84.89006 L61.98354 84.96765 L61.95730 85.04607 L61.81902 85.29767 L61.57455 85.51869 L58.55000 87.49530 L57.98267 87.74052 L57.33225 87.77735 L54.17794 87.34715 L53.42541 87.06652 L52.91284 86.48039 L51.70625 83.99388 z M61.37718 81.92104 L61.37195 81.90075 L60.38949 79.92266 L60.37880 79.90915 L60.36251 79.90030 L58.10214 79.16858 L57.98267 79.15293 L57.84941 79.18063 L55.46442 80.08705 L55.19507 80.24518 L54.98545 80.49772 L53.85812 82.53178 L53.73473 82.94383 L53.81270 83.35206 L54.69202 85.16264 L54.96752 85.47862 L55.37447 85.63215 L57.64546 85.95491 L57.98267 85.93739 L58.28189 85.80976 L60.42930 84.42416 L60.54124 84.32387 L60.60563 84.20777 L61.37391 81.94347 z"/>
<path fill="#000000" stroke="#000000" d="M63.03732 58.30740 L63.03566 58.31378 L61.63299 61.13633 L61.62213 61.15818 L61.61885 61.16479 L61.56525 61.23265 L61.48324 61.27749 L58.24598 62.34004 L57.98267 62.37555 L57.98267 62.37555 L57.68446 62.31492 L54.29634 61.04749 L53.77912 60.74669 L53.37200 60.26033 L51.79375 57.44591 L51.56255 56.68507 L51.70625 55.92520 L52.91676 53.43686 L53.43145 52.84940 L54.18175 52.57030 L57.33283 52.14283 L57.98313 52.17968 L58.55045 52.42489 L61.57455 54.40131 L61.81902 54.62233 L61.95730 54.87393 L61.98350 54.95225 L62.00950 55.02995 L63.04465 58.12422 L63.05637 58.20622 L63.05892 58.22403 z M61.37718 57.99896 L61.37391 57.97653 L60.60563 55.71223 L60.54124 55.59613 L60.42930 55.49584 L58.28189 54.11024 L57.98267 53.98261 L57.64546 53.96509 L55.37763 54.28568 L54.97205 54.43830 L54.69532 54.75509 L53.81270 56.56794 L53.73473 56.97617 L53.85812 57.38822 L54.98170 59.41907 L55.19058 59.67105 L55.46107 59.83008 L57.84941 60.73937 L57.98267 60.76707 L58.10214 60.75142 L60.36251 60.01970 L60.37880 60.01085 L60.38949 59.99734 L61.37195 58.01925 z"/>
<path fill="#000000" stroke="#000000" d="M96.87948 81.92977 L96.87371 81.96676 L95.72726 84.91936 L95.61330 85.08772 L95.43643 85.18934 L92.39590 86.12162 L92.25000 86.13372 L92.11306 86.08771 L89.14756 84.38464 L89.14457 84.38210 L89.14280 84.37887 L89.14246 84.37782 L89.14212 84.37678 L89.11347 84.28921 L90.04545 83.38890 L90.07975 83.35576 L90.10981 83.43048 L90.12561 83.46977 L90.69735 83.74643 L91.26685 84.02202 L92.25000 84.49777 L93.00727 84.23624 L94.37439 83.76409 L94.51889 83.42489 L95.14015 81.96655 L95.25218 81.70356 L95.25217 81.70353 L95.10746 81.34378 L94.47533 79.77235 L94.37439 79.52141 L94.29890 79.48488 L94.15766 79.41653 L94.22475 79.35173 L94.28735 79.29126 L95.11002 78.49677 L95.35496 78.59560 L95.36383 78.60126 L95.37044 78.61021 L96.85937 81.67299 L96.89373 81.80493 L96.89701 81.81750 z"/>
<path fill="#000000" stroke="#000000" d="M96.89373 58.11507 L96.85937 58.24701 L95.37044 61.30979 L95.36383 61.31874 L95.35496 61.32440 L95.11003 61.42322 L94.28735 60.62854 L94.22482 60.56816 L94.15778 60.50341 L94.37439 60.39859 L94.78787 59.37071 L95.10782 58.57531 L95.25218 58.21644 L95.25217 58.21641 L95.13993 57.95294 L94.94786 57.50206 L94.37439 56.15591 L93.79805 55.95686 L92.25000 55.42223 L91.27100 55.89515 L90.25846 56.38427 L90.12866 56.44697 L90.08093 56.56538 L89.15706 55.67290 L89.11497 55.63224 L89.14547 55.53924 L89.14583 55.53814 L89.14619 55.53702 L89.14808 55.53358 L89.15125 55.53089 L92.11351 53.83232 L92.25045 53.78631 L92.39637 53.79841 L95.43643 54.73066 L95.61330 54.83228 L95.72726 55.00064 L96.87371 57.95324 L96.87948 57.99023 L96.89701 58.10250 z"/>
<path fill="#000000" stroke="#000000" d="M73.35788 84.37678 L73.35754 84.37782 L73.35720 84.37887 L73.35543 84.38210 L73.35244 84.38464 L70.38694 86.08771 L70.25000 86.13372 L70.10410 86.12162 L67.06357 85.18934 L66.88670 85.08772 L66.77274 84.91936 L65.62622 81.96628 L65.62045 81.92930 L65.60293 81.81705 L65.60620 81.80449 L65.64057 81.67255 L67.13377 78.60623 L67.14026 78.59746 L67.14891 78.59195 L67.38859 78.49542 L67.70317 78.79927 L68.34116 79.41550 L68.12866 79.51815 L68.02917 79.76498 L67.24788 81.70339 L67.24782 81.70356 L67.55215 82.41795 L68.12561 83.76409 L68.28155 83.81795 L69.70576 84.30981 L70.25000 84.49777 L72.24904 83.53042 L72.37439 83.46977 L72.42024 83.35578 L72.45454 83.38892 L72.51940 83.45159 L73.38653 84.28920 z"/>
<path fill="#000000" stroke="#000000" d="M67.24782 58.21644 L68.02470 60.14773 L68.12561 60.39859 L68.34226 60.50343 L67.71116 61.11302 L67.38997 61.42322 L67.14504 61.32440 L67.13617 61.31874 L67.12956 61.30979 L65.64052 58.24655 L65.60615 58.11462 L65.60288 58.10204 L65.62040 57.98977 L65.62618 57.95276 L66.77640 54.99722 L66.89086 54.82843 L67.06724 54.72727 L70.10459 53.79852 L70.25045 53.78643 L70.38739 53.83243 L73.35244 55.53536 L73.35543 55.53790 L73.35720 55.54113 L73.35754 55.54218 L73.35788 55.54322 L73.38653 55.63080 L72.51957 56.46842 L72.45462 56.53117 L72.42029 56.56433 L72.39021 56.48955 L72.37439 56.45023 L71.02801 55.79871 L70.25000 55.42223 L69.70704 55.60929 L69.49381 55.68275 L68.12866 56.15307 L67.89528 56.69975 L67.24788 58.21628 z"/>
<path fill="#000000" stroke="#000000" d="M84.05549 81.25914 L84.93234 81.25911 L85.24017 81.25910 L85.25493 81.25910 L85.38881 81.25911 L85.49369 81.48889 L85.49517 81.49501 L85.49531 81.49559 L85.49456 81.50093 L85.49431 81.50269 L84.42013 84.63393 L84.36931 84.72084 L84.28686 84.78162 L81.38647 86.10413 L81.25000 86.13372 L81.11353 86.10413 L78.21314 84.78162 L78.13069 84.72084 L78.07987 84.63393 L77.00563 81.50220 L77.00538 81.50044 L77.00463 81.49512 L77.00477 81.49455 L77.00625 81.48844 L77.11095 81.25944 L77.25895 81.25943 L78.44461 81.25938 L78.35015 81.49521 L78.35000 81.49559 L78.94436 82.98257 L79.19792 83.61693 L79.57309 83.77797 L80.57322 84.20727 L81.25000 84.49777 L82.31105 84.04232 L83.30208 83.61693 L83.75212 82.49101 L83.91401 82.08599 L84.15000 81.49559 L84.14997 81.49552 z"/>
<path fill="#000000" stroke="#000000" d="M78.35000 58.42441 L78.44441 58.66062 L77.25982 58.66057 L77.11114 58.66056 L77.00621 58.43065 L77.00472 58.42452 L77.00458 58.42394 L77.00533 58.41861 L77.00558 58.41684 L78.08328 55.28230 L78.13437 55.19504 L78.21669 55.13445 L81.11398 53.81595 L81.25044 53.78637 L81.38691 53.81596 L84.28686 55.13838 L84.36931 55.19916 L84.42013 55.28607 L85.49431 58.41731 L85.49456 58.41907 L85.49531 58.42441 L85.49517 58.42499 L85.49369 58.43111 L85.38881 58.66089 L85.25493 58.66088 L85.24019 58.66088 L84.93138 58.66089 L84.05549 58.66086 L84.15000 58.42441 L84.14997 58.42434 L83.91357 57.83291 L83.55565 56.93745 L83.30208 56.30307 L82.25033 55.85161 L81.25000 55.42223 L80.57525 55.71127 L80.19114 55.87581 L79.20086 56.30002 L78.40548 58.28590 L78.35015 58.42403 z"/>
<path fill="#000000" stroke="#000000" d="M108.64188 57.38822 L107.51830 59.41907 L107.30942 59.67105 L107.03893 59.83008 L104.65059 60.73937 L104.51733 60.76707 L104.39786 60.75142 L102.13749 60.01970 L102.12120 60.01085 L102.11051 59.99734 L101.12805 58.01925 L101.12282 57.99896 L101.12609 57.97653 L101.89719 55.70876 L101.96203 55.59204 L102.07385 55.49197 L104.21811 54.11024 L104.51733 53.98261 L104.85454 53.96509 L107.12553 54.28785 L107.53248 54.44138 L107.80798 54.75736 L108.68730 56.56794 L108.76527 56.97617 z"/>
<path fill="#000000" stroke="#000000" d="M101.12282 81.92104 L101.12805 81.90075 L102.11371 79.92000 L102.12451 79.90638 L102.14082 79.89753 L104.39786 79.16858 L104.51733 79.15293 L104.65059 79.18063 L107.03893 80.08992 L107.30942 80.24895 L107.51830 80.50093 L108.64188 82.53178 L108.76527 82.94383 L108.68730 83.35206 L107.80798 85.16264 L107.53248 85.47862 L107.12553 85.63215 L104.85454 85.95491 L104.51733 85.93739 L104.21811 85.80976 L102.07070 84.42416 L101.95876 84.32387 L101.89437 84.20777 L101.12609 81.94347 z"/>
<path fill="#000000" stroke="#000000" d="M104.94731 67.21442 L106.94508 67.72465 L107.04672 67.77226 L107.12023 67.85559 L108.17865 69.80586 L108.21823 69.96000 L108.17865 70.11414 L107.12023 72.06441 L107.04672 72.14774 L106.94508 72.19535 L104.94731 72.70558 L104.94731 72.48757 L104.94731 71.00589 L104.94731 69.96000 L104.94731 68.91198 L104.94731 67.43243 z"/>
<path fill="#000000" stroke="#000000" d="M61.37195 58.01925 L60.38949 59.99734 L60.37880 60.01085 L60.36251 60.01970 L58.10214 60.75142 L57.98267 60.76707 L57.84941 60.73937 L55.46107 59.83008 L55.19058 59.67105 L54.98170 59.41907 L53.85812 57.38822 L53.73473 56.97617 L53.81270 56.56794 L54.69532 54.75509 L54.97205 54.43830 L55.37763 54.28568 L57.64546 53.96509 L57.98267 53.98261 L58.28189 54.11024 L60.42930 55.49584 L60.54124 55.59613 L60.60563 55.71223 L61.37391 57.97653 L61.37718 57.99896 z"/>
<path fill="#000000" stroke="#000000" d="M53.73473 82.94383 L53.85812 82.53178 L54.98545 80.49772 L55.19507 80.24518 L55.46442 80.08705 L57.84941 79.18063 L57.98267 79.15293 L58.10214 79.16858 L60.36251 79.90030 L60.37880 79.90915 L60.38949 79.92266 L61.37195 81.90075 L61.37718 81.92104 L61.37391 81.94347 L60.60563 84.20777 L60.54124 84.32387 L60.42930 84.42416 L58.28189 85.80976 L57.98267 85.93739 L57.64546 85.95491 L55.37447 85.63215 L54.96752 85.47862 L54.69202 85.16264 L53.81270 83.35206 z"/>
<path fill="#000000" stroke="#000000" d="M55.55492 72.19535 L55.45328 72.14774 L55.37977 72.06441 L54.32135 70.11414 L54.28177 69.96000 L54.32135 69.80586 L55.38349 67.85281 L55.45721 67.76938 L55.55835 67.72209 L57.55269 67.21411 L57.55269 68.60314 L57.55269 69.96000 L57.55269 71.31411 L57.55269 72.70558 z"/>
<path stroke="#000000" d="M 0.00000 21.30783 L 162.50000 21.30783 L 162.50000 118.64116 L 0.00000 118.64116 z"/>
<path stroke="#000000" d="M 4.35000 137.02029 L 5.80000 137.74529 L 7.97500 139.92029 L 7.97500 124.69529"/>
<path stroke="#000000" d="M 26.10000 137.74529 L 25.37500 139.19529 L 23.20000 139.92029 L 21.75000 139.92029 L 19.57500 139.19529 L 18.12500 137.02029 L 17.40000 133.39529 L 17.40000 129.77029 L 18.12500 126.87029 L 19.57500 125.42029 L 21.75000 124.69529 L 22.47500 124.69529 L 24.65000 125.42029 L 26.10000 126.87029 L 26.82500 129.04529 L 26.82500 129.77029 L 26.10000 131.94529 L 24.65000 133.39529 L 22.47500 134.12029 L 21.75000 134.12029 L 19.57500 133.39529 L 18.12500 131.94529 L 17.40000 129.77029"/>
<path stroke="#000000" d="M 31.90000 136.29529 L 31.90000 137.02029 L 32.62500 138.47029 L 33.35000 139.19529 L 34.80000 139.92029 L 37.70000 139.92029 L 39.15000 139.19529 L 39.87500 138.47029 L 40.60000 137.02029 L 40.60000 135.57029 L 39.87500 134.12029 L 38.42500 131.94529 L 31.17500 124.69529 L 41.32500 124.69529"/>
<path stroke="#000000" d="M 47.12500 126.14529 L 46.40000 125.42029 L 47.12500 124.69529 L 47.85000 125.42029 z"/>
<path stroke="#000000" d="M 60.17500 139.92029 L 52.92500 129.77029 L 63.80000 129.77029 M 60.17500 139.92029 L 60.17500 124.69529"/>
<path stroke="#000000" d="M 76.85000 134.84529 L 76.12500 132.67029 L 74.67500 131.22029 L 72.50000 130.49529 L 71.77500 130.49529 L 69.60000 131.22029 L 68.15000 132.67029 L 67.42500 134.84529 L 67.42500 135.57029 L 68.15000 137.74529 L 69.60000 139.19529 L 71.77500 139.92029 L 72.50000 139.92029 L 74.67500 139.19529 L 76.12500 137.74529 L 76.85000 134.84529 L 76.85000 131.22029 L 76.12500 127.59529 L 74.67500 125.42029 L 72.50000 124.69529 L 71.05000 124.69529 L 68.87500 125.42029 L 68.15000 126.87029"/>
<path stroke="#000000" d=""/>
<path stroke="#000000" d="M 93.52500 134.84529 L 101.50000 124.69529 M 101.50000 134.84529 L 93.52500 124.69529"/>
<path stroke="#000000" d=""/>
<path stroke="#000000" d="M 126.87500 134.84529 L 126.15000 132.67029 L 124.70000 131.22029 L 122.52500 130.49529 L 121.80000 130.49529 L 119.62500 131.22029 L 118.17500 132.67029 L 117.45000 134.84529 L 117.45000 135.57029 L 118.17500 137.74529 L 119.62500 139.19529 L 121.80000 139.92029 L 122.52500 139.92029 L 124.70000 139.19529 L 126.15000 137.74529 L 126.87500 134.84529 L 126.87500 131.22029 L 126.15000 127.59529 L 124.70000 125.42029 L 122.52500 124.69529 L 121.07500 124.69529 L 118.90000 125.42029 L 118.17500 126.87029"/>
<path stroke="#000000" d="M 142.10000 139.92029 L 134.85000 124.69529 M 131.95000 139.92029 z"/>
<path stroke="#000000" d="M 147.90000 126.14529 L 147.17500 125.42029 L 147.90000 124.69529 L 148.62500 125.42029 z"/>
<path stroke="#000000" d="M 155.15000 139.92029 L 163.12500 139.92029 L 158.77500 134.12029 L 160.95000 134.12029 L 162.40000 133.39529 L 163.12500 132.67029 L 163.85000 130.49529 L 163.85000 129.04529 L 163.12500 126.87029 L 161.67500 125.42029 L 159.50000 124.69529 L 157.32500 124.69529 L 155.15000 125.42029 L 154.42500 126.14529 L 153.70000 127.59529"/>
</svg>