<?xml version="1.0" encoding="UTF-8"?>
<!-- Generated by jsxcad -->
<!DOCTYPE svg PUBLIC "-//W3C//DTD SVG 1.1 Tiny//EN" "http://www.w3.org/Graphics/SVG/1.1/DTD/svg11-tiny.dtd">
<svg baseProfile="tiny" height="127.00627mm" width="204.25000mm" viewBox="-0.00000 22.64901 204.25000 127.00627" version="1.1" stroke="black" stroke-width=".1" fill="none" xmlns="http://www.w3.org/2000/svg">
<path fill="#000000" stroke="#000000" d="M55.99194 60.11693 L57.15995 57.55615 L59.52826 56.03137 L112.35409 56.03137 L114.72241 57.55615 L115.89042 60.11693 L115.89042 88.11693 L115.48991 90.90340 L113.64818 93.03141 L110.94118 93.82759 L60.94118 93.82759 L58.23417 93.03141 L56.39244 90.90340 L55.99194 88.11693 z"/>
<path stroke="#000000" d="M 0.00000 22.64901 L 172.00000 22.64901 L 172.00000 126.98235 L 0.00000 126.98235 z"/>
<path stroke="#000000" d="M 4.60714 146.58386 L 6.14286 147.35172 L 8.44643 149.65529 L 8.44643 133.53029"/>
<path stroke="#000000" d="M 28.41071 149.65529 L 20.73214 133.53029 M 17.66071 149.65529 z"/>
<path stroke="#000000" d="M 35.32143 146.58386 L 36.85714 147.35172 L 39.16071 149.65529 L 39.16071 133.53029"/>
<path stroke="#000000" d="M 49.91071 135.06600 L 49.14286 134.29815 L 49.91071 133.53029 L 50.67857 134.29815 z"/>
<path stroke="#000000" d="M 59.89286 149.65529 L 57.58929 148.88743 L 56.82143 147.35172 L 56.82143 145.81600 L 57.58929 144.28029 L 59.12500 143.51243 L 62.19643 142.74457 L 64.50000 141.97672 L 66.03571 140.44100 L 66.80357 138.90529 L 66.80357 136.60172 L 66.03571 135.06600 L 65.26786 134.29815 L 62.96429 133.53029 L 59.89286 133.53029 L 57.58929 134.29815 L 56.82143 135.06600 L 56.05357 136.60172 L 56.05357 138.90529 L 56.82143 140.44100 L 58.35714 141.97672 L 60.66071 142.74457 L 63.73214 143.51243 L 65.26786 144.28029 L 66.03571 145.81600 L 66.03571 147.35172 L 65.26786 148.88743 L 62.96429 149.65529 z"/>
<path stroke="#000000" d="M 75.25000 149.65529 L 72.94643 148.88743 L 72.17857 147.35172 L 72.17857 145.81600 L 72.94643 144.28029 L 74.48214 143.51243 L 77.55357 142.74457 L 79.85714 141.97672 L 81.39286 140.44100 L 82.16071 138.90529 L 82.16071 136.60172 L 81.39286 135.06600 L 80.62500 134.29815 L 78.32143 133.53029 L 75.25000 133.53029 L 72.94643 134.29815 L 72.17857 135.06600 L 71.41071 136.60172 L 71.41071 138.90529 L 72.17857 140.44100 L 73.71429 141.97672 L 76.01786 142.74457 L 79.08929 143.51243 L 80.62500 144.28029 L 81.39286 145.81600 L 81.39286 147.35172 L 80.62500 148.88743 L 78.32143 149.65529 z"/>
<path stroke="#000000" d=""/>
<path stroke="#000000" d="M 99.05357 144.28029 L 107.50000 133.53029 M 107.50000 144.28029 L 99.05357 133.53029"/>
<path stroke="#000000" d=""/>
<path stroke="#000000" d="M 126.69643 146.58386 L 128.23214 147.35172 L 130.53571 149.65529 L 130.53571 133.53029"/>
<path stroke="#000000" d="M 144.35714 149.65529 L 142.05357 148.88743 L 140.51786 146.58386 L 139.75000 142.74457 L 139.75000 140.44100 L 140.51786 136.60172 L 142.05357 134.29815 L 144.35714 133.53029 L 145.89286 133.53029 L 148.19643 134.29815 L 149.73214 136.60172 L 150.50000 140.44100 L 150.50000 142.74457 L 149.73214 146.58386 L 148.19643 148.88743 L 145.89286 149.65529 z"/>
<path stroke="#000000" d="M 162.78571 149.65529 L 155.10714 138.90529 L 166.62500 138.90529 M 162.78571 149.65529 L 162.78571 133.53029"/>
<path stroke="#000000" d="M 172.00000 135.06600 L 171.23214 134.29815 L 172.00000 133.53029 L 172.76786 134.29815 z"/>
<path stroke="#000000" d="M 179.67857 149.65529 L 188.12500 149.65529 L 183.51786 143.51243 L 185.82143 143.51243 L 187.35714 142.74457 L 188.12500 141.97672 L 188.89286 139.67315 L 188.89286 138.13743 L 188.12500 135.83386 L 186.58929 134.29815 L 184.28571 133.53029 L 181.98214 133.53029 L 179.67857 134.29815 L 178.91071 135.06600 L 178.14286 136.60172"/>
<path stroke="#000000" d="M 202.71429 149.65529 L 195.03571 149.65529 L 194.26786 142.74457 L 195.03571 143.51243 L 197.33929 144.28029 L 199.64286 144.28029 L 201.94643 143.51243 L 203.48214 141.97672 L 204.25000 139.67315 L 204.25000 138.13743 L 203.48214 135.83386 L 201.94643 134.29815 L 199.64286 133.53029 L 197.33929 133.53029 L 195.03571 134.29815 L 194.26786 135.06600 L 193.50000 136.60172"/>
</svg>