<?xml version="1.0" encoding="UTF-8"?>
<!-- Generated by jsxcad -->
<!DOCTYPE svg PUBLIC "-//W3C//DTD SVG 1.1 Tiny//EN" "http://www.w3.org/Graphics/SVG/1.1/DTD/svg11-tiny.dtd">
<svg baseProfile="tiny" height="119.79704mm" width="173.05556mm" viewBox="0.00043 21.00849 173.05556 119.79704" version="1.1" stroke="black" stroke-width=".1" fill="none" xmlns="http://www.w3.org/2000/svg">
<path fill="#000000" stroke="#000000" d="M105.73135 71.65030 L103.65308 74.08380 L103.39941 74.27828 L103.09742 74.36157 L102.95036 74.37455 L102.86104 74.38243 L99.46610 74.68203 L99.41063 74.67772 L99.39354 74.67639 L99.36907 74.66563 L99.33365 74.65005 L98.31072 73.96180 L98.31061 72.93856 L98.31058 72.60103 L99.63062 73.07512 L100.09612 73.24230 L100.26576 73.30323 L101.15705 72.98312 L101.29333 72.93418 L101.29333 72.94983 L101.69809 72.91187 L102.19172 72.86558 L102.19601 72.86518 L102.24580 72.85122 L102.28703 72.81935 L102.53820 72.52271 L102.58155 72.47152 L102.63490 72.45236 L102.68297 72.35174 L102.72561 72.30139 L103.77588 71.06101 L103.83240 70.94941 L103.82907 70.82607 L103.70104 70.38080 L103.22511 68.72560 L103.17719 68.64186 L103.09646 68.58512 L102.68254 68.40336 L102.65204 68.38997 L102.63490 68.35409 L102.28038 68.22676 L101.29333 67.79333 L101.29333 67.87227 L100.47073 67.57684 L100.26576 67.50323 L99.80023 67.67008 L99.23721 67.87187 L98.31057 68.20399 L98.31058 67.39927 L98.31059 67.10478 L98.31060 66.77137 L100.99791 65.97883 L101.12793 65.96401 L101.17345 65.95881 L101.24406 65.97533 L101.35909 66.00224 L104.56002 67.38744 L104.88051 67.61081 L105.07276 67.94462 L105.91372 70.84798 L105.92517 71.26990 z"/>
<path fill="#000000" stroke="#000000" d="M106.25733 84.25688 L104.46609 86.41847 L103.87548 86.84261 L103.13790 86.96403 L99.79139 86.82648 L99.25936 86.70814 L98.83094 86.44266 L96.09938 84.03087 L95.95863 83.86029 L95.94920 83.83414 L95.89341 83.67948 L95.87454 83.56194 L95.84671 83.38855 L95.35938 80.35239 L95.35960 80.34514 L95.36086 80.30409 L95.36969 80.28523 L95.38033 80.26254 L97.31574 77.69687 L97.31692 77.69531 L97.31728 77.69483 L97.37629 77.64315 L97.45814 77.61493 L100.91665 77.06504 L101.21163 77.07041 L101.52744 77.18404 L104.69258 78.92686 L105.17973 79.31799 L105.50381 79.87532 L106.49401 82.82231 L106.56215 83.57941 z"/>
<path fill="#000000" stroke="#000000" d="M95.27988 58.94424 L95.30380 58.86889 L95.30930 58.85154 L96.85468 55.88360 L96.93929 55.72110 L97.13387 55.46709 L97.43438 55.26594 L100.69680 53.76166 L101.31674 53.59925 L101.96987 53.67665 L104.87247 54.66437 L105.51715 55.07552 L105.86299 55.73869 L106.46114 58.50086 L106.43364 59.22025 L106.09205 59.87091 L103.95368 62.49828 L103.55791 62.84176 L103.11028 63.02106 L99.55587 63.79165 L99.35626 63.80241 L99.18913 63.75207 L96.22301 62.19569 L96.18827 62.16787 L96.18440 62.16048 L96.16848 62.13014 L96.15533 62.08395 L96.14772 62.05722 L95.28624 59.03122 L95.28245 58.97939 z"/>
<path fill="#000000" stroke="#000000" d="M56.93395 72.93418 L57.75626 73.22951 L57.96152 73.30323 L58.42773 73.13579 L58.76616 73.01424 L59.91670 72.60103 L59.91669 72.72488 L59.91667 72.87179 L59.91663 74.03360 L57.22983 74.82773 L57.09985 74.84255 L57.05432 74.84775 L56.98379 74.83125 L56.86871 74.80433 L53.66725 73.41901 L53.34676 73.19564 L53.15452 72.86183 L52.31355 69.95804 L52.30210 69.53613 L52.49595 69.15570 L54.57940 66.72003 L54.83379 66.52529 L55.13457 66.44254 L55.28123 66.42969 L55.37046 66.42186 L58.76168 66.12463 L58.81714 66.12894 L58.83422 66.13027 L58.85870 66.14104 L58.89409 66.15660 L59.91667 66.84466 L59.91672 67.60143 L59.91673 67.77601 L59.91674 68.20543 L58.59666 67.73134 L58.13096 67.56408 L57.96152 67.50323 L57.07278 67.82176 L57.02512 67.83884 L56.99841 67.84842 L56.93395 67.87152 L56.93395 67.85557 L56.53100 67.89310 L56.03947 67.93889 L56.03521 67.93929 L55.98580 67.95311 L55.94457 67.98492 L55.69504 68.27914 L55.65064 68.33148 L55.59577 68.35114 L55.54629 68.45452 L55.50244 68.50621 L54.45139 69.74544 L54.39487 69.85704 L54.39820 69.98038 L54.52623 70.42565 L55.00216 72.08086 L55.05008 72.16459 L55.13082 72.22133 L55.54473 72.40309 L55.57523 72.41648 L55.59237 72.45236 L55.94689 72.57969 L56.93395 73.01312 z"/>
<path fill="#000000" stroke="#000000" d="M62.92344 81.93710 L62.91794 81.95443 L61.37636 84.91939 L61.29201 85.08163 L61.09848 85.33459 L60.79751 85.53629 L57.53097 87.04481 L56.91098 87.20726 L56.25789 87.12986 L53.35480 86.14208 L52.71012 85.73093 L52.36428 85.06776 L51.76615 82.30515 L51.79366 81.58579 L52.13529 80.93507 L54.27885 78.30489 L54.67575 77.96084 L55.12162 77.78255 L58.67192 77.01493 L58.87149 77.00418 L59.03860 77.05452 L62.00426 78.61076 L62.03900 78.63859 L62.04287 78.64596 L62.05879 78.67631 L62.07194 78.72249 L62.07955 78.74922 L62.94100 81.77477 L62.94479 81.82659 L62.94736 81.86174 z"/>
<path fill="#000000" stroke="#000000" d="M51.66509 57.22662 L51.96997 56.54908 L53.76585 54.38602 L54.35862 53.96112 L55.09378 53.84066 L58.43642 53.98025 L58.96835 54.09859 L59.39675 54.36405 L62.12789 56.77558 L62.26865 56.94617 L62.27806 56.97226 L62.33386 57.12697 L62.35273 57.24447 L62.38057 57.41787 L62.86791 60.45358 L62.86769 60.46083 L62.86643 60.50190 L62.85759 60.52077 L62.84696 60.54346 L60.91604 63.10701 L60.91484 63.10860 L60.91449 63.10906 L60.85585 63.16050 L60.77394 63.18879 L57.31110 63.74157 L57.01612 63.73621 L56.70036 63.62260 L53.53469 61.87959 L53.04755 61.48846 L52.72346 60.93113 L51.73323 57.98373 z"/>
<path fill="#000000" stroke="#000000" d="M93.67161 82.23620 L91.97972 84.87537 L91.83671 85.01507 L91.64626 85.07881 L88.43415 85.41425 L88.31478 85.40192 L88.21168 85.34611 L86.10255 83.61134 L86.71598 83.01866 L86.78381 82.95313 L86.94339 82.79898 L86.97817 82.88544 L86.98653 82.90623 L86.98925 82.91299 L87.01840 82.92710 L87.13813 82.98504 L88.56733 83.67664 L88.97942 83.87605 L89.11364 83.94100 L89.63093 83.76235 L90.43007 83.48635 L91.04267 83.27478 L91.23802 83.20732 L91.49058 82.61447 L91.59936 82.35912 L91.87513 81.71178 L91.97234 81.48358 L92.05322 81.29374 L92.11582 81.14678 L91.94955 80.73344 L91.93098 80.68729 L91.79159 80.34076 L91.24415 78.97987 L91.23802 78.96464 L91.20031 78.94638 L91.02132 78.85977 L91.11935 78.76508 L91.21137 78.67619 L91.84255 78.06664 L92.73637 78.60860 L92.76936 78.63812 L92.79031 78.67945 L93.71721 81.90435 L93.73017 82.07481 z"/>
<path fill="#000000" stroke="#000000" d="M93.64202 60.35456 L93.59101 60.46641 L91.91611 62.81094 L91.15757 62.07819 L91.06306 61.98691 L91.02137 61.94666 L91.22502 61.84811 L91.23802 61.84182 L91.26181 61.78270 L91.62134 60.88892 L91.77768 60.50026 L91.95961 60.04799 L92.05841 59.80239 L92.11582 59.65967 L91.89696 59.14590 L91.88022 59.10662 L91.55086 58.33348 L91.31923 57.78976 L91.23802 57.59913 L90.63056 57.38934 L89.95322 57.15541 L89.26027 56.91609 L89.11364 56.86545 L88.72550 57.05295 L88.19386 57.30976 L87.04652 57.86400 L87.00006 57.88645 L86.99230 57.89020 L86.98409 57.91056 L86.97717 57.92772 L86.94457 58.00860 L86.89293 57.95871 L86.13083 57.22250 L86.53283 56.44750 L86.54321 56.42750 L86.56634 56.39788 L86.60020 56.37772 L89.76369 55.22632 L89.92900 55.20195 L90.09073 55.24755 L92.85531 56.74498 L93.00646 56.87841 L93.08403 57.06409 L93.64606 60.22905 z"/>
<path fill="#000000" stroke="#000000" d="M71.69835 84.35560 L71.68806 84.37547 L71.66516 84.40482 L71.63141 84.42494 L68.46402 85.58024 L68.29871 85.60462 L68.13700 85.55903 L65.37196 84.06147 L65.22081 83.92804 L65.14325 83.74236 L64.58124 80.57692 L64.58527 80.45143 L64.63628 80.33958 L66.31233 77.99671 L66.88007 78.54508 L67.20479 78.85873 L67.04420 78.93630 L67.00507 78.95520 L66.99230 78.96138 L66.96888 79.01948 L66.91498 79.15319 L66.26800 80.75839 L66.16890 81.00424 L66.11145 81.14678 L66.33031 81.66053 L66.61618 82.33158 L66.90804 83.01669 L66.98925 83.20732 L67.59671 83.41711 L67.62243 83.42599 L68.27407 83.65104 L68.96682 83.89029 L69.11364 83.94100 L69.50236 83.75289 L69.82843 83.59511 L71.23058 82.91660 L71.23802 82.91299 L71.24590 82.89342 L71.28390 82.79895 L71.33369 82.84706 L71.42989 82.94000 L72.09751 83.58489 z"/>
<path fill="#000000" stroke="#000000" d="M66.11145 59.65967 L66.27772 60.07300 L66.94669 61.73602 L66.98312 61.82659 L66.98925 61.84182 L67.02695 61.86006 L67.10838 61.89947 L67.20590 61.94665 L67.15140 61.99929 L66.38468 62.73975 L65.49090 62.19786 L65.45791 62.16833 L65.43697 62.12700 L64.51003 58.90164 L64.49708 58.73117 L64.55565 58.56976 L66.25187 55.92844 L66.39542 55.78843 L66.58527 55.72506 L69.79358 55.39242 L69.91292 55.40476 L70.01602 55.46056 L72.12478 57.19514 L71.40310 57.89241 L71.30539 57.98680 L71.28391 58.00754 L71.24075 57.90023 L71.23802 57.89346 L71.20886 57.87935 L69.65996 57.12982 L69.24770 56.93033 L69.11364 56.86545 L68.59739 57.04331 L68.23476 57.16824 L67.88506 57.28872 L67.18812 57.52883 L66.99230 57.59630 L66.73874 58.19025 L66.47485 58.80841 L66.25520 59.32293 L66.17410 59.51293 z"/>
<path fill="#000000" stroke="#000000" d="M81.91913 80.70238 L82.54891 80.70238 L82.60709 80.70238 L83.06911 80.70241 L83.33055 81.68163 L83.33261 81.71101 L83.32325 81.74002 L81.73375 84.61202 L81.65847 84.70002 L81.55286 84.75091 L78.47203 85.49911 L78.33429 85.50226 L78.20774 85.44834 L75.58352 83.59540 L75.52572 83.53369 L75.49709 83.45618 L75.05741 80.70266 L75.82115 80.70263 L76.30824 80.70261 L76.21763 80.92885 L76.21364 80.93881 L76.22965 80.97889 L76.88968 82.63015 L77.02171 82.96046 L77.06156 83.06015 L77.41375 83.21133 L77.47196 83.23632 L78.47426 83.66655 L78.97817 83.88285 L79.11364 83.94100 L79.54242 83.75695 L80.00861 83.55684 L81.06355 83.10401 L81.16572 83.06015 L81.28509 82.76152 L81.53783 82.12919 L81.62605 81.90848 L81.82767 81.40406 L82.00928 80.94972 L82.01364 80.93881 L82.00167 80.90886 L81.96676 80.82153 L81.96023 80.80521 z"/>
<path fill="#000000" stroke="#000000" d="M76.21364 59.86764 L76.22560 59.89756 L76.30805 60.10384 L76.15996 60.10383 L75.15817 60.10379 L74.89669 59.12435 L74.89464 59.09497 L74.90399 59.06594 L76.49753 56.19135 L76.57317 56.10305 L76.67856 56.05236 L79.75568 55.30751 L79.89340 55.30437 L80.01995 55.35829 L82.64375 57.21105 L82.70155 57.27276 L82.73018 57.35027 L83.16999 60.10409 L82.92660 60.10411 L82.89595 60.10411 L82.48533 60.10410 L82.40682 60.10410 L81.91913 60.10408 L82.00964 59.87762 L82.01364 59.86764 L81.99760 59.82753 L81.95308 59.71613 L81.91308 59.61607 L81.20557 57.84600 L81.16572 57.74630 L80.81352 57.59512 L79.75303 57.13991 L79.24894 56.92353 L79.11364 56.86545 L78.68560 57.04881 L78.24537 57.23739 L77.62492 57.50318 L77.16706 57.69932 L77.06450 57.74325 L76.94453 58.04279 L76.83280 58.32175 L76.40009 59.40210 L76.21799 59.85676 z"/>
<path stroke="#000000" d="M 0.00043 21.00849 L 158.33376 21.00849 L 158.33376 119.75849 L 0.00043 119.75849 z"/>
<path stroke="#000000" d="M 4.23852 137.98013 L 5.65122 138.68648 L 7.77027 140.80552 L 7.77027 125.97219"/>
<path stroke="#000000" d="M 24.72265 140.80552 L 17.65916 140.80552 L 16.95281 134.44838 L 17.65916 135.15473 L 19.77821 135.86108 L 21.89725 135.86108 L 24.01630 135.15473 L 25.42900 133.74203 L 26.13535 131.62298 L 26.13535 130.21029 L 25.42900 128.09124 L 24.01630 126.67854 L 21.89725 125.97219 L 19.77821 125.97219 L 17.65916 126.67854 L 16.95281 127.38489 L 16.24646 128.79759"/>
<path stroke="#000000" d="M 33.90519 140.80552 L 31.78614 140.09918 L 31.07979 138.68648 L 31.07979 137.27378 L 31.78614 135.86108 L 33.19884 135.15473 L 36.02424 134.44838 L 38.14329 133.74203 L 39.55598 132.32933 L 40.26233 130.91664 L 40.26233 128.79759 L 39.55598 127.38489 L 38.84964 126.67854 L 36.73059 125.97219 L 33.90519 125.97219 L 31.78614 126.67854 L 31.07979 127.38489 L 30.37344 128.79759 L 30.37344 130.91664 L 31.07979 132.32933 L 32.49249 133.74203 L 34.61154 134.44838 L 37.43694 135.15473 L 38.84964 135.86108 L 39.55598 137.27378 L 39.55598 138.68648 L 38.84964 140.09918 L 36.73059 140.80552 z"/>
<path stroke="#000000" d="M 45.91313 127.38489 L 45.20678 126.67854 L 45.91313 125.97219 L 46.61948 126.67854 z"/>
<path stroke="#000000" d="M 52.27027 137.27378 L 52.27027 137.98013 L 52.97662 139.39283 L 53.68297 140.09918 L 55.09567 140.80552 L 57.92106 140.80552 L 59.33376 140.09918 L 60.04011 139.39283 L 60.74646 137.98013 L 60.74646 136.56743 L 60.04011 135.15473 L 58.62741 133.03568 L 51.56392 125.97219 L 61.45281 125.97219"/>
<path stroke="#000000" d="M 66.39725 137.27378 L 66.39725 137.98013 L 67.10360 139.39283 L 67.80995 140.09918 L 69.22265 140.80552 L 72.04805 140.80552 L 73.46075 140.09918 L 74.16710 139.39283 L 74.87344 137.98013 L 74.87344 136.56743 L 74.16710 135.15473 L 72.75440 133.03568 L 65.69091 125.97219 L 75.57979 125.97219"/>
<path stroke="#000000" d=""/>
<path stroke="#000000" d="M 91.11948 135.86108 L 98.88932 125.97219 M 98.88932 135.86108 L 91.11948 125.97219"/>
<path stroke="#000000" d=""/>
<path stroke="#000000" d="M 123.61154 135.86108 L 122.90519 133.74203 L 121.49249 132.32933 L 119.37344 131.62298 L 118.66710 131.62298 L 116.54805 132.32933 L 115.13535 133.74203 L 114.42900 135.86108 L 114.42900 136.56743 L 115.13535 138.68648 L 116.54805 140.09918 L 118.66710 140.80552 L 119.37344 140.80552 L 121.49249 140.09918 L 122.90519 138.68648 L 123.61154 135.86108 L 123.61154 132.32933 L 122.90519 128.79759 L 121.49249 126.67854 L 119.37344 125.97219 L 117.96075 125.97219 L 115.84170 126.67854 L 115.13535 128.09124"/>
<path stroke="#000000" d="M 132.08773 140.80552 L 129.96868 140.09918 L 129.26233 138.68648 L 129.26233 137.27378 L 129.96868 135.86108 L 131.38138 135.15473 L 134.20678 134.44838 L 136.32583 133.74203 L 137.73852 132.32933 L 138.44487 130.91664 L 138.44487 128.79759 L 137.73852 127.38489 L 137.03217 126.67854 L 134.91313 125.97219 L 132.08773 125.97219 L 129.96868 126.67854 L 129.26233 127.38489 L 128.55598 128.79759 L 128.55598 130.91664 L 129.26233 132.32933 L 130.67503 133.74203 L 132.79408 134.44838 L 135.61948 135.15473 L 137.03217 135.86108 L 137.73852 137.27378 L 137.73852 138.68648 L 137.03217 140.09918 L 134.91313 140.80552 z"/>
<path stroke="#000000" d="M 144.09567 127.38489 L 143.38932 126.67854 L 144.09567 125.97219 L 144.80202 126.67854 z"/>
<path stroke="#000000" d="M 159.63535 140.80552 L 152.57186 125.97219 M 149.74646 140.80552 z"/>
<path stroke="#000000" d="M 173.05598 135.86108 L 172.34964 133.74203 L 170.93694 132.32933 L 168.81789 131.62298 L 168.11154 131.62298 L 165.99249 132.32933 L 164.57979 133.74203 L 163.87344 135.86108 L 163.87344 136.56743 L 164.57979 138.68648 L 165.99249 140.09918 L 168.11154 140.80552 L 168.81789 140.80552 L 170.93694 140.09918 L 172.34964 138.68648 L 173.05598 135.86108 L 173.05598 132.32933 L 172.34964 128.79759 L 170.93694 126.67854 L 168.81789 125.97219 L 167.40519 125.97219 L 165.28614 126.67854 L 164.57979 128.09124"/>
</svg>